<svg width="48" height="48" viewBox="0 0 48 48" fill="none" xmlns="http://www.w3.org/2000/svg">
<circle cx="24" cy="24" r="24" transform="matrix(-1 0 0 1 48 0)" fill="#008000"/>
<path d="M27.6123 17.3389C27.8606 17.5888 28 17.9267 28 18.2789C28 18.6312 27.8606 18.9691 27.6123 19.2189L22.8923 24.0056L27.6123 28.7256C27.8606 28.9754 28 29.3134 28 29.6656C28 30.0179 27.8606 30.3558 27.6123 30.6056C27.4883 30.7306 27.3409 30.8298 27.1784 30.8975C27.0159 30.9651 26.8416 31 26.6656 31C26.4896 31 26.3153 30.9651 26.1528 30.8975C25.9904 30.8298 25.8429 30.7306 25.7189 30.6056L20.0656 24.9523C19.9406 24.8283 19.8414 24.6809 19.7738 24.5184C19.7061 24.3559 19.6712 24.1816 19.6712 24.0056C19.6712 23.8296 19.7061 23.6553 19.7738 23.4928C19.8414 23.3304 19.9406 23.1829 20.0656 23.0589L25.7189 17.3389C25.8429 17.214 25.9904 17.1148 26.1528 17.0471C26.3153 16.9794 26.4896 16.9445 26.6656 16.9445C26.8416 16.9445 27.0159 16.9794 27.1784 17.0471C27.3409 17.1148 27.4883 17.214 27.6123 17.3389Z" fill="white"/>
</svg>
