<svg width="9" height="15" viewBox="0 0 9 15" fill="none" xmlns="http://www.w3.org/2000/svg">
<path d="M8.61228 1.33894C8.86061 1.58875 9 1.92669 9 2.27894C9 2.63118 8.86061 2.96912 8.61228 3.21894L3.89228 8.0056L8.61228 12.7256C8.86061 12.9754 9 13.3134 9 13.6656C9 14.0179 8.86061 14.3558 8.61228 14.6056C8.48833 14.7306 8.34086 14.8298 8.17838 14.8975C8.0159 14.9651 7.84163 15 7.66561 15C7.48959 15 7.31532 14.9651 7.15284 14.8975C6.99036 14.8298 6.84289 14.7306 6.71894 14.6056L1.06561 8.95227C0.940639 8.82832 0.841447 8.68085 0.773755 8.51837C0.706064 8.35589 0.671212 8.18162 0.671213 8.0056C0.671213 7.82959 0.706064 7.65531 0.773755 7.49283C0.841447 7.33035 0.940639 7.18289 1.06561 7.05894L6.71894 1.33894C6.84289 1.21397 6.99036 1.11477 7.15284 1.04708C7.31532 0.97939 7.48959 0.944538 7.66561 0.944538C7.84163 0.944538 8.0159 0.97939 8.17838 1.04708C8.34086 1.11477 8.48833 1.21397 8.61228 1.33894Z" fill="white"/>
</svg>
