<svg width="48" height="48" viewBox="0 0 48 48" fill="none" xmlns="http://www.w3.org/2000/svg">
<circle cx="24" cy="24" r="24" fill="#008000"/>
<path d="M20.3877 17.3389C20.1394 17.5888 20 17.9267 20 18.2789C20 18.6312 20.1394 18.9691 20.3877 19.2189L25.1077 24.0056L20.3877 28.7256C20.1394 28.9754 20 29.3134 20 29.6656C20 30.0179 20.1394 30.3558 20.3877 30.6056C20.5117 30.7306 20.6591 30.8298 20.8216 30.8975C20.9841 30.9651 21.1584 31 21.3344 31C21.5104 31 21.6847 30.9651 21.8472 30.8975C22.0096 30.8298 22.1571 30.7306 22.2811 30.6056L27.9344 24.9523C28.0594 24.8283 28.1586 24.6809 28.2262 24.5184C28.2939 24.3559 28.3288 24.1816 28.3288 24.0056C28.3288 23.8296 28.2939 23.6553 28.2262 23.4928C28.1586 23.3304 28.0594 23.1829 27.9344 23.0589L22.2811 17.3389C22.1571 17.214 22.0096 17.1148 21.8472 17.0471C21.6847 16.9794 21.5104 16.9445 21.3344 16.9445C21.1584 16.9445 20.9841 16.9794 20.8216 17.0471C20.6591 17.1148 20.5117 17.214 20.3877 17.3389Z" fill="white"/>
</svg>
