<svg width="9" height="15" viewBox="0 0 9 15" fill="none" xmlns="http://www.w3.org/2000/svg">
<path d="M0.387723 1.33894C0.139388 1.58875 -5.71453e-07 1.92669 -5.56055e-07 2.27894C-5.40658e-07 2.63118 0.139388 2.96912 0.387723 3.21894L5.10772 8.0056L0.387723 12.7256C0.139389 12.9754 -7.37256e-08 13.3134 -5.83284e-08 13.6656C-4.29311e-08 14.0179 0.139389 14.3558 0.387723 14.6056C0.511674 14.7306 0.659142 14.8298 0.821621 14.8975C0.9841 14.9651 1.15837 15 1.33439 15C1.51041 15 1.68468 14.9651 1.84716 14.8975C2.00964 14.8298 2.15711 14.7306 2.28106 14.6056L7.93439 8.95227C8.05936 8.82832 8.15855 8.68085 8.22624 8.51837C8.29394 8.35589 8.32879 8.18162 8.32879 8.0056C8.32879 7.82959 8.29394 7.65531 8.22624 7.49283C8.15855 7.33035 8.05936 7.18289 7.93439 7.05894L2.28106 1.33894C2.15711 1.21397 2.00964 1.11477 1.84716 1.04708C1.68468 0.97939 1.51041 0.944538 1.33439 0.944538C1.15837 0.944538 0.984099 0.97939 0.82162 1.04708C0.659141 1.11477 0.511673 1.21397 0.387723 1.33894Z" fill="white"/>
</svg>
