<svg width="16" height="16" viewBox="0 0 16 16" fill="none" xmlns="http://www.w3.org/2000/svg">
<g clip-path="url(#clip0_23_126)">
<path d="M14.6667 4.66651C14.6667 3.56194 13.7713 2.6665 12.6667 2.6665H3.33337C2.2288 2.6665 1.33337 3.56193 1.33337 4.6665V11.3332C1.33337 12.4377 2.2288 13.3332 3.33337 13.3332H12.6667C13.7713 13.3332 14.6667 12.4377 14.6667 11.3332V4.66651ZM13.3334 5.01984C13.3334 5.21476 13.233 5.39593 13.0677 5.49924L9.06004 8.00401C8.4115 8.40934 7.58858 8.40934 6.94004 8.00401L2.93241 5.49924C2.76712 5.39593 2.66671 5.21476 2.66671 5.01984C2.66671 4.5758 3.15513 4.3051 3.53166 4.54044L6.94004 6.67067C7.58858 7.07601 8.4115 7.07601 9.06004 6.67067L12.4684 4.54044C12.845 4.3051 13.3334 4.5758 13.3334 5.01984Z" fill="black"/>
</g>
<defs>
<clipPath id="clip0_23_126">
<rect width="16" height="16" fill="white"/>
</clipPath>
</defs>
</svg>
