<svg xmlns="http://www.w3.org/2000/svg" viewBox="256.67 269.95 483.77 385.15"><defs><style>.cls-1{fill:#78a07c;}.cls-2{fill:#c12323;}.cls-3{fill:#dedc00;}.cls-4{fill:#29485c;}</style></defs><g id="Capa_4" data-name="Capa 4"><path class="cls-1" d="M256.67,655.1v-2.42q10.21,0,15.77-5.76a17.17,17.17,0,0,0,4.3-8.24q1.15-5,1.16-15.31V548.88q0-10.73-1.26-15.82a16.73,16.73,0,0,0-4.7-8.34,18,18,0,0,0-6.32-3.84,31.43,31.43,0,0,0-8.95-1.42v-2.32h64.59v2.32a34.65,34.65,0,0,0-9.1,1.52,16.65,16.65,0,0,0-10.91,12.23Q300,538.27,300,548.88V607.2q0,13.44.71,20a32.47,32.47,0,0,0,2.73,10.71A22.26,22.26,0,0,0,314,648.58q7,3.39,18.5,3.39,12,0,20.26-3.18a31.06,31.06,0,0,0,13.5-9.86,41.53,41.53,0,0,0,5.81-10.31,92.91,92.91,0,0,0,4.19-15.16l2.43.2-1.31,41.44Z"/><path class="cls-2" d="M494.71,622.19c-1.24,5.38-6.83,26.7-8.9,32.91H385.21v-5.79c19.25-1.45,20.7-3.31,20.7-20.29V547.26c0-18.43-2.28-19.46-17.8-20.91v-5.8h63.34c19.46,0,27.53-.2,30-.41.21,5.18,1,20.7,1.87,31.67l-6.21,1a69.7,69.7,0,0,0-6.21-15.74c-3.32-6.83-8.08-8.28-20.5-8.28H430.75c-6.42,0-6.83.63-6.83,6.63v45.75h23c15.53,0,16.56-3.11,19.05-17.19h6.41v42.65h-6.41c-2.69-14.91-4.35-17-19.25-17H423.92v41.2c0,14.49,4.55,15.73,14.9,15.93h19.25c12.63,0,14.7-1.86,19.25-7.24,3.94-4.35,8.28-12.83,11.18-19Z"/><path class="cls-3" d="M579,655.1v-5.79c13.45-1.66,15.11-3.73,12.21-11.59-2.69-8.08-6.83-18.43-11.18-31.47H535.28c-3.31,9.32-6.42,17.39-9.32,25.88-4.55,13.45-1.65,15.11,15.32,17.18v5.79H493.47v-5.79c13-1.66,16.35-3.11,23.59-21.74L559.91,518.9l6.63-1.24c13,35.39,27.32,74.52,40.36,110.33,6.63,18,8.49,19.66,23.19,21.32v5.79Zm-20.7-110.33c-6.63,17.81-13.67,36.64-19.88,53h38.71Z"/><path class="cls-4" d="M691.77,520.55c14.7,0,26.5,2.7,35,8.91,8.08,6,13.67,15.73,13.67,29.39,0,30.22-25.88,42.43-45.54,42.43a36,36,0,0,1-5.59-.41L675,597.14v32.3c0,17.38,1.45,17.8,20.5,19.87v5.79H638.37v-5.79C656.17,647.45,657,646.2,657,629V546.84c0-18.42-2.28-18.83-18.63-20.49v-5.8ZM675,589.9c2.49,1.24,8.08,2.69,15.12,2.69,13.86,0,31-7,31-33.12,0-22.77-14.91-31.88-32.3-31.88-6,0-10.35,1-11.59,2.49-1.66,1.45-2.28,3.93-2.28,9.52Z"/><path class="cls-4" d="M522.83,412.8a3.1,3.1,0,0,0-2.54-1.7c-1.69-.28-3.17.74-4.53,1.61-.37.23-.74.46-1.12.68l-.07-.09-.2.16a47.11,47.11,0,0,1-3.73,3,10.76,10.76,0,0,0-1.27,1,18.11,18.11,0,0,1-4.87,3,17.89,17.89,0,0,1-3.11.92,20.11,20.11,0,0,1-5.37.08,14,14,0,0,0-4.23,0,3.1,3.1,0,0,0-.58.21l-.39-.43c-1-1.4-1.79-2.89-2.63-4.36a24.93,24.93,0,0,0-1.39-2.4,6,6,0,0,0-1.16-1.25c-.5-.4-1.08-.67-1.58-1.06a7.87,7.87,0,0,1-1.12-1.25,15.6,15.6,0,0,0-3.16-2.57A11.68,11.68,0,0,0,477,407c-.91-.41-1.81-.81-2.73-1.19s-1.7-.57-2.53-.9a15.84,15.84,0,0,1-1.59-.81,28.82,28.82,0,0,1-3.62-2.26,55.28,55.28,0,0,1-4.86-4.94,28,28,0,0,0-7.9-5.53c-1.22-.75-2.3-1.7-3.46-2.53a19.86,19.86,0,0,1-2.32-1.88c-.8-.75-1.55-1.56-2.31-2.36a11.3,11.3,0,0,0-2.73-2.34,19.67,19.67,0,0,0-3.44-1.47,22.44,22.44,0,0,0-2.72-.49c-1.06-.17-2.11-.41-3.17-.61s-2.09-.2-3.14-.28a75.13,75.13,0,0,0-8.08-.13c-1.11,0-2.21-.07-3.32-.07s-2.43.15-3.65.26c-1.68.17-3.38,0-5.07,0-1.38,0-2.73.35-4.11.43-1,0-2.11-.09-3.17-.12-1.33-.05-2.67,0-4,0a28.08,28.08,0,0,0-4.67.19c-.63.08-1.56.31-2.44.42l0,0a25.39,25.39,0,0,0-.88-7,8.92,8.92,0,0,1,.53-3.26,28.54,28.54,0,0,0,.58-3.47c.12-1.13.35-2.25.36-3.38a17.9,17.9,0,0,1,.19-2.73,3.91,3.91,0,0,1,.9-1.93c.09-.15.25-.23.33-.38a.24.24,0,0,0,0-.26c.13-.15.28-.29.42-.43a5.54,5.54,0,0,0,1.54-3.22,5.33,5.33,0,0,0-.29-2.53,5.35,5.35,0,0,1,.6-4.09c1.26-2,2.49-4,3.67-6.08.92-1.67,1.76-3.38,2.62-5.09,1-1.85,1.33-4.09,2.83-5.65a6.31,6.31,0,0,1,3.05-1.38c1-.35,2.1-.71,3.18-1,1.49-.36,2.86-1.06,4.31-1.56.62-.21,1.26-.38,1.88-.62,1.19-.46,2.3-1.11,3.49-1.57,3-1.17,6.29-2.32,8.94-4.18a5.87,5.87,0,0,1,1.35-.82,5.6,5.6,0,0,1,1.14-.22,9.07,9.07,0,0,0,4.07-1.19,33.72,33.72,0,0,1,3.35-2.18c1.2-.69,2.25-1.6,3.4-2.37,1.41-1.07,2.87-2.09,4.22-3.24,1.07-.87,2.14-1.72,3.16-2.65s2-1.5,3-2.24a45.52,45.52,0,0,1,5-2.93A37.36,37.36,0,0,1,464,300c1.62-.74,3.37-1.11,5-1.83l.8-.28c.27-.09.59-.19.63-.52a20.55,20.55,0,0,0,.14-3.23c0-.72-.38-1.38-.42-2.09.17-.32.54-.51.79-.78s2.08-.61,2.41-.9a1.6,1.6,0,0,1,.86-.49,27.59,27.59,0,0,1,3.15,0c.34,0,.77.14,1.07-.09.52-.67.42-1.92,1-2.35s1.86.35,2.15-.85c.35-1.45,1.56-2.22.78-3.86-.44-.93-.33-3.7-1.38-4.06-1.79-.62-2-3-4.26-2.32A19.58,19.58,0,0,0,471,279.9l-.14.15a27,27,0,0,0-2.71,3.43l-.1.16h-.07c-1.13-.28-2,.67-2.7,1.41a14.11,14.11,0,0,1-2.09,1.6c-.77.46-1.48,1-2.28,1.43s-1.45.61-2.14,1-1.45.95-2.19,1.39-1.62.8-2.41,1.24c-1.21.63-2.44,1.25-3.62,1.94-.82.46-1.72.81-2.52,1.33a20.58,20.58,0,0,1-2.54,1.56c-2.12,1.05-4,2.53-6.23,3.44-1.42.53-2.72,1.31-4.15,1.8a19.68,19.68,0,0,0-2.26.83,22.66,22.66,0,0,1-2.08.92c-.37.1-.73.22-1.09.35a10.1,10.1,0,0,0,.71-1.39,8.42,8.42,0,0,1,.45-1.25,1.32,1.32,0,0,0,2-.46c.29-.48.15-1.09.43-1.58.18-.31.31-.19.52,0a2.22,2.22,0,0,0,3.17-.36c.48-.59.15-1.35,0-2-.1-.33.21-.43.48-.46.81,0,1.31.06,1.67-.81a1.59,1.59,0,0,0-.32-2.06.25.25,0,0,1-.08-.12c0-.6.48-1,.84-1.43a1.94,1.94,0,0,0,.41-1,1.16,1.16,0,0,0-1-1.51c-.88-.36-1-.77-.73-1.66.06-.47.2-1.18-.28-1.47a.7.7,0,0,0-.45,0,.8.8,0,0,1-.92-.41c-.19-.54.12-1.12-.12-1.66a2.91,2.91,0,0,0-1.8-1.51c-.76-.19-1.41.36-2.11.56l0,0c-.06-.07-.16-.05-.24-.07a.59.59,0,0,1-.23-.55c0-.7.49-1.25.5-1.93.07-.95-.45-1.64-1.44-1.26-.61.2-1.48.46-1.67-.4a6.16,6.16,0,0,0,.26-1.71,1.46,1.46,0,0,0-2-1.31,8.27,8.27,0,0,0-1.19.76.06.06,0,0,1-.09,0c-.45-.37-.34-1-.57-1.52a1.59,1.59,0,0,0-1.52-.92,3.65,3.65,0,0,0-1.09.17,1.76,1.76,0,0,1-1.85,0c-.4-.44-.26-1.14-.54-1.65a2.2,2.2,0,0,0-1.87-1.37c-.76,0-1.23.73-1.89,1a.25.25,0,0,0-.12-.13.63.63,0,0,1-.38-.35,2.27,2.27,0,0,0-.41-.84,1.46,1.46,0,0,0-1.75,0c-.25.2-.41.51-.7.67a.29.29,0,0,1-.39,0c-.28-.23-.43-.59-.73-.8a1.55,1.55,0,0,0-.69-.28.82.82,0,0,0-.61.12c-.26.14-.38.44-.62.6-.48-.13-.81-.53-1.25-.75a1.64,1.64,0,0,0-1.93.2c-.31.31-.4.78-.69,1.12s-.94,0-1.4.08a2.29,2.29,0,0,0-1.21.47,3.16,3.16,0,0,0-.7,1.13c-.17.38-.23.9-.62,1.13a.9.9,0,0,1-.4,0,.23.23,0,0,0-.26.11,10.86,10.86,0,0,0-2.7-.43A2,2,0,0,0,397.6,276c-.23.92-.32,1.16-1.31,1.23a3.42,3.42,0,0,0-3.27,2.8c-.23.54-.11,1.17-.33,1.7-.25.28-.67.34-1,.56a2.91,2.91,0,0,0-.92,3.2c.29.8,1,1.59.75,2.5-.21.48-.72.64-1,1.05a2.19,2.19,0,0,0-.53,1.76c.31,1.57,2.58.94,1.8,2.05-.37.39-.86.59-1.24,1-1.36,1.42-.84,2.87.55,4,.4.38.26.95.08,1.43-.51.12-1,.22-1.53.31-1.69.35-3.37.77-5.08,1a33.78,33.78,0,0,1-4,.27H380a3.87,3.87,0,0,1-1.85-.3,15.58,15.58,0,0,1-1.81-1.53c-.52-.43-1.08-.8-1.62-1.21-1.33-.94-2.43-2.21-3.79-3.12-1.87-1.09-3.84-1.95-5.63-3.19-.6-.42-1.13-.91-1.7-1.35a14.63,14.63,0,0,0-2.43-1.46l-.85-.43c0-.14-.19-.2-.31-.27l-.39-.17c-1.21-.4-2.45-.74-3.7-1a4.67,4.67,0,0,0-3.79.52c-.51.3-.94.71-1.43,1a8,8,0,0,1-1.53.74,25.82,25.82,0,0,1-2.63.46c-.89.23-1.79.45-2.65.75a3.93,3.93,0,0,0-2.6,3.3c-.08.73-.1,1.46-.12,2.19a15.17,15.17,0,0,0,.28,3.3,1.79,1.79,0,0,0,.27.67,2.34,2.34,0,0,0,1.47.74c.33.09.67.2,1,.31,1,.44,1.51-.54,2-1.21.64.51,1.23,1.09,1.89,1.57a2.09,2.09,0,0,0,1.3.43,4.61,4.61,0,0,1,1.39.07,5.06,5.06,0,0,1,1.21.91,19.84,19.84,0,0,0,3.48,3.31c.8.58,1.59,1.18,2.36,1.81a8.33,8.33,0,0,1,1.54,1.43,15.54,15.54,0,0,0,2.82,3.72c1,.84,1.82,1.86,2.87,2.63.44.27.88.52,1.34.75-.18.44-.37.88-.58,1.31-.53,1.13-1.1,2.24-1.68,3.34-.1.18-.19.36-.29.53-1,1.86-2,3.7-3,5.58-1.52,2.92-2.63,6-3.9,9.05-2.44,6-4.65,12-6.82,18.07-.62,1.81-1.35,3.57-2,5.35q-1.67,4.45-3.47,8.85c-.35.74-.22,1,.26,1.67a4.84,4.84,0,0,0,2.09,1.65,37.78,37.78,0,0,0-1.95,6.59c-.45,1.83-.68,3.67-1,5.54a26.49,26.49,0,0,0-.47,6.47,15.92,15.92,0,0,0,.58,4,15,15,0,0,0,1.42,2.87c.46.79.87,1.59,1.33,2.38a18.14,18.14,0,0,0,3.76,4.68l.52.39c0,.47,0,.94.07,1.41.25,2.36.76,4.69,1.12,7a32.48,32.48,0,0,1,.31,7.57c-.05.92-.16,1.84-.25,2.75-.14,1.57-.24,3.14-.44,4.71s-.08,3.17-.13,4.75c0,1-.17,1.94-.25,2.91a20.8,20.8,0,0,1-2.44.87c-2.48.67-5.08.52-7.61.86-1.49.15-3,.36-4.46.51-1.3.1-2.61.2-3.91.34a24,24,0,0,0-3.82.8l-5,1.39a11.5,11.5,0,0,1-2.41.28,25.18,25.18,0,0,0-3,.33c-1.86.33-3.66.84-5.51,1.21a46.08,46.08,0,0,0-8,2.41,53.32,53.32,0,0,1-6.64,2.22,27.2,27.2,0,0,0-4.92,1.52,23.4,23.4,0,0,1-3.62,1.32c-.58.13-1.19.05-1.76.23a3.41,3.41,0,0,0-2,2.83c-.14.87-.34,1.74-.55,2.6l-.15.77v0a.42.42,0,0,1,0,.1c-1.1,3.43-2.29,6.84-3.38,10.28-1,3-2.22,6-3,9.11a33.85,33.85,0,0,0-.66,4.27,47.26,47.26,0,0,0-.26,5.32,11.79,11.79,0,0,0,.14,2.65c0,.66.72,1,1.31,1a12.41,12.41,0,0,0,1.61-.09c.59,0,1.18,0,1.76,0a.8.8,0,0,0,.61-.12,5.75,5.75,0,0,0,.51-.91,25.89,25.89,0,0,1,2.68-4.11,18.61,18.61,0,0,0,2.42-4.25,3.62,3.62,0,0,1,.22-.32c.14,0,.27-.18.38-.29a25.06,25.06,0,0,0,3.18-3.17,16.54,16.54,0,0,1,1.77-1.57,21.83,21.83,0,0,1,2.43-1.84,28.09,28.09,0,0,1,3.68-2.22c1.34-.58,2.79-.87,4.15-1.4s2.57-1,3.89-1.4c1.82-.59,3.67-1.07,5.51-1.6,4.81-1.26,9.48-3,14.25-4.42,2.05-.7,3.87-1.93,6-2.54,1.89-.63,3.86-1,5.78-1.48,4.06-1.12,8.1-2.32,12.18-3.36,2.24-.54,4.47-1.09,6.65-1.83.27-.13,1.57-.42,1.49-.77a.28.28,0,0,0,0-.13c.3-.19.59-.41.75-.5.65-.48,1.35-1,2-1.47a29.53,29.53,0,0,0,2.33-1.85,6.58,6.58,0,0,0,1.1-1.93c.39-.92.76-1.84,1.17-2.75.53-1.19,1.15-2.43,1.68-3.65.75-1.82,1.42-3.67,2.08-5.52,1-2.87,2.05-5.72,3-8.61.69-2,1.23-4.1,1.88-6.15.55-1.69,1.19-3.34,1.8-5,.53-1.43,1.06-2.85,1.53-4.3q.16-.5.3-1l4.7-.86c1.75-.34,3.51-.58,5.27-.87s3.54-.65,5.32-.85c2.44-.29,4.89-.37,7.34-.6a54.1,54.1,0,0,0,5.35-.85c2.36-.46,4.74-.88,7.09-1.41,1.14-.28,2.26-.66,3.4-.95a22.4,22.4,0,0,1,4.54-.58,12.3,12.3,0,0,0,2.64-.17h.17c.92,0,1.85-.16,2.76-.3a7.11,7.11,0,0,1,3.1-.25c.52.18,1,.49,1.48.71a.3.3,0,0,0,.1.19,7.7,7.7,0,0,0,1.23,1.19c.93.69,1.92,1.29,2.8,2,2.27,2,4.39,4.13,6.73,6,1,.85,2.05,1.66,3.1,2.46a43.06,43.06,0,0,0,3.62,2.84c1.4,1,2.88,1.72,4.31,2.64s2.8,1.85,4.21,2.74c1.67,1.06,3.5,1.95,5.09,3.14.95.75,2,1.39,3,2.09s1.68,1.38,2.57,2a37.21,37.21,0,0,1,3.34,2.36,33.1,33.1,0,0,0,4.63,3.53c1.06.56,2,1.26,3.1,1.81.6.33,1.38.31,1.86.82a11.58,11.58,0,0,1,.89,1.8,7.6,7.6,0,0,0,1.5,1.7,17.49,17.49,0,0,0,1.75,1.45c1.78,1.38,3.64,3,5.87,3.48a3.24,3.24,0,0,0,.48.23,2.56,2.56,0,0,0,1.19.23,1.51,1.51,0,0,0,.56-.05.28.28,0,0,0,.17.07l.12,0,1.52-.92a31.3,31.3,0,0,0,3.64-2.61c1.44-1.25,2.76-2.61,4.11-4,.8-.71,1.54-1.48,2.36-2.17,1.5-1.15,3.15-2.07,4.68-3.18a25.33,25.33,0,0,0,3.17-2.69c.87-.9,1.7-1.84,2.59-2.74a25.76,25.76,0,0,0,2.57-3.05c.75-1.07,1.09-2.38,1.83-3.46a.43.43,0,0,0,0-.07l-.09-.1c.16-.3.32-.6.46-.91.38-1,.6-2.14.88-3.22A5.25,5.25,0,0,0,522.83,412.8Z"/><path class="cls-4" d="M535.29,424c-.75,2.82-1.56,5.5-1.43,8.45a26.13,26.13,0,0,0,1.06,5.67,42.82,42.82,0,0,0,2,6.15,8.66,8.66,0,0,0,2.9,3.85,2,2,0,0,0,.53.17,1.31,1.31,0,0,0,.28,0,2.26,2.26,0,0,0,.26,0,1.46,1.46,0,0,0,.34-.1l.19-.06a2.1,2.1,0,0,0,.33-.22l.15-.1h0l.1-.07a7.31,7.31,0,0,0,1.74-4.66,32.87,32.87,0,0,1,.25-5.78c.09-.46.18-.92.28-1.38a1.45,1.45,0,0,0,.35,0,.48.48,0,0,0,.37-.57c-.1-.27-.22-.61-.38-1,.11-.45.23-.9.35-1.34h0l0,0a.26.26,0,0,0,.34-.26,4.42,4.42,0,0,0-.14-.63c.09-.26.16-.53.25-.78a8.17,8.17,0,0,1,.33-.84.39.39,0,0,0,.31-.06.43.43,0,0,0,.16-.57.87.87,0,0,0,0-.23,5.89,5.89,0,0,1,.52-.62c.08-.1.14-.2.21-.3l.08,0a.65.65,0,0,0,.37.27.19.19,0,0,0,.13,0,.44.44,0,0,0,.44-.23,4,4,0,0,0,.24-.57,5.18,5.18,0,0,1,1.84-.24,1.47,1.47,0,0,0,.45.32.26.26,0,0,0,.1.19c.38.22.8-.06,1.13-.39l.78.06,1.35.1a2.1,2.1,0,0,0,.31.35.28.28,0,0,0,.42.24l0,0h.1a.13.13,0,0,0,.07,0,.64.64,0,0,1,0-.07,1.62,1.62,0,0,0,.28-.25c.24.06.47.12.71.2.52.18,1,.58,1.58.81.45-.08.84-.38,1.16-1.13a1.35,1.35,0,0,0-.21-1.28c12.3,1.92,34.21,5.31,46.18,7a5.93,5.93,0,0,0,4.1-3c2.39-2.94,5.42-8.39,8.54-14.64a15.36,15.36,0,0,0,4.38-.3c.33-.6.66-1.2,1-1.79l-.25,0,2.43-4.59c2.3,2.52,4.29,4.61,5.46,5.81l-.13.06c.42.54.81,1.11,1.19,1.68a17.36,17.36,0,0,0,4.67-1.23c7.17,5.91,14.46,11.7,18.31,14.64a31.79,31.79,0,0,0,.55,4.41c.12,1.5.26,3,.36,4.51a79.22,79.22,0,0,0,1,10.31c1.09,5.49,4.36,10.75,6.53,15.88.53,1.24,1,2.48,1.55,3.73l-.12.08c-.37.25-.73.47-.81.95s.52,1.14.79,1.5a13.45,13.45,0,0,1,1.62,2.74c.76,1.68,1.36,3.34,2,5.07.3.84.51,2,.91,3a16.49,16.49,0,0,0,.65,2.1,27.88,27.88,0,0,0,2.3,4.78h0l.22.33c1.61,2.2,13.34-2.45,16.14-3.28a40.81,40.81,0,0,0,9-4.72c3.68-2.88,4.55-4.51,4.82-6.05a.65.65,0,0,0-.07-.29l-.06-.1a1.38,1.38,0,0,0-.16-.23l-.08-.1a2.69,2.69,0,0,0-.29-.3s0,0,0,0h0a9.12,9.12,0,0,0-2.23-1.47,7.27,7.27,0,0,0-4.93.2,32.53,32.53,0,0,1-5.38,2l-1.47.27a.41.41,0,0,0-.23-.09.53.53,0,0,0-.22-.15.35.35,0,0,0-.41.15l-.14.28c-.41.07-.81.11-1.22.17a.68.68,0,0,0-.26-.27c-.3-.15-.58.08-.48.36-.31,0-.63.1-.94.13-.59,0-1.2-.13-1.79-.24a1.6,1.6,0,0,0,0-.21c-.15-.35-.81-.47-.78,0a5.53,5.53,0,0,1-1.75-.74,2,2,0,0,0,.08-.35s0-.06,0-.07h0c-.1-.28-.57-.46-1.16-.56l0,0a.28.28,0,0,1-.13-.11v0h0a7.86,7.86,0,0,1-.51-.89c0-.09,0-.18-.05-.26l-.09-.25a1.49,1.49,0,0,0,.13-.25c.08,0,.15,0,.13-.11a1.77,1.77,0,0,0-.72-1c-.08-.25-.15-.5-.22-.76s-.19-1-.35-1.79c0,0,0-.08,0-.12a2.7,2.7,0,0,1,.31.2s0,0,0,0-.19-.28-.29-.4a1.09,1.09,0,0,0-.25-.82s0,0,0,0a.78.78,0,0,1,0,.34,3.94,3.94,0,0,0-1.18-2.21,2.78,2.78,0,0,0-.87.28c-2.16-11.37-5.09-26.56-7.17-36.21-1.45-3.27-2.63-6.22-3.78-8.43a174,174,0,0,0-10.18-17.08l.41-.43c-.26-.33-.5-.67-.73-1l-.09,0-12.43-17h0l-.39-5.21c.1-5.06-1.06-16.17-1.06-16.17s.11-.39.27-1a15.68,15.68,0,0,0,2.16-.48l.1,0a61.94,61.94,0,0,0,7.64-3.22,124.58,124.58,0,0,0,11.87-5.73q2.58-1.41,4.16-2.4a4.11,4.11,0,0,0,2.69.26,17.08,17.08,0,0,0,5.51-.76,6.81,6.81,0,0,0,3.87-3.05,3.11,3.11,0,0,0,1-.22c1.07-.54,3.36-4.44,1.29-4.88a6.06,6.06,0,0,0,.18-1c.1-1-.3-1.14-1.21-1.23a0,0,0,0,0,0,0,1.93,1.93,0,0,0,.12-.79,1.61,1.61,0,0,0-.7-1.25c-.33-.24-.75-.05-1.09-.2a.56.56,0,0,1,0-.13,1.1,1.1,0,0,0,0-.51s0,0,0,0a.4.4,0,0,1,0,.11,1.42,1.42,0,0,0-.23-.69,4.28,4.28,0,0,0-2.94-.88,9.77,9.77,0,0,0-5.82,3.45c-.68.55-1.33,1.16-2,1.64-1,.8-1.48,2.38-1.8,3.59-.14.56-.33,1.14-.47,1.73-2.44.47-7.59,1.83-18.94,4.43l-2.7.88a41.89,41.89,0,0,0,.82-4.92,8.39,8.39,0,0,0,0-1.5c0-.15,0-.3,0-.44-.06-.4-.13-.79-.22-1.19l-.09-.41a16.19,16.19,0,0,0-.5-1.59l-.07-.18c-.18-.48-.39-1-.61-1.45,0-.06,0-.12-.08-.19h0a50.32,50.32,0,0,0-8.42-11.85,20.2,20.2,0,0,0-1.86-1.78c.77-1.91,1.41-3.47,1.67-4,.7-1.37,3.7.12,4.78,0v0a8.86,8.86,0,0,0,2.77,0,5.22,5.22,0,0,0,3.46-2.56,21,21,0,0,1,1.06-3.81c.25-1,.86-.73.89-1.75a.6.6,0,0,0-.34-.51L644,314l-.12,0-.21-.07-.12,0-.27-.06-.13,0-.2,0-.19,0h-.06l-.06,0c.78,0,2.64-.3,2.81-1.19a.57.57,0,0,0,0-.13h0a4.11,4.11,0,0,0-.51-1.63,2.59,2.59,0,0,1-.3-1s0,0,0-.05c0-.59,1.08-.92,1.52-1.13a4.49,4.49,0,0,0,1.2-.8c0-.09.1-.17.14-.27a1.28,1.28,0,0,0,.08-.46,2,2,0,0,0,0-.24s0-.09,0-.14h0c0-.06,0-.12,0-.17-.38-.32-.85-.56-1.25-.85a9.2,9.2,0,0,1-2.06-2.54,10.24,10.24,0,0,1-.61-1.1,5.15,5.15,0,0,1-1.21-3.19c6,.76,12.36.53,15.78-2.88,1.08-1.09,1.41-1.89,1.36-2.48.33-1.66-2.08-2-2.1-2.06s-14.53-4.48-14.53-4.48v0c0-.2-.07-.39-.12-.58v0c-.15-.61-.32-1.19-.5-1.77-.05-.14-.09-.28-.14-.42-.2-.58-.41-1.14-.65-1.67l0-.06q-.35-.78-.75-1.5l-.21-.37c-.28-.49-.58-1-.89-1.42l-.06-.08c-.31-.43-.63-.84-1-1.24l-.26-.31c-.36-.41-.73-.81-1.11-1.18l-.11-.1c-.36-.35-.73-.67-1.11-1l-.33-.27c-.41-.33-.84-.64-1.28-.94l-.16-.11c-.4-.26-.81-.51-1.22-.74l-.38-.22c-.46-.25-.93-.49-1.41-.71l-.24-.1c-.41-.19-.84-.37-1.27-.53l-.44-.16c-.49-.18-1-.35-1.48-.49l-.34-.1-1.25-.32-.51-.11c-.5-.11-1-.2-1.51-.28-.14,0-.28,0-.43-.06-.4-.06-.81-.11-1.21-.15l-.57-.06c-.5,0-1-.07-1.51-.08h-2.26c-.5,0-1,.05-1.49.09l-.54.06-1.1.13-.61.09-.19,0h0a31.1,31.1,0,0,0-3.76.86l-.29.08c-.6.19-1.18.39-1.76.6l-.34.13c-.61.24-1.2.49-1.78.77l-.16.07c-.64.31-1.27.65-1.88,1h0c-.56.34-1.1.69-1.62,1.06l-.43.33c-.38.28-.74.58-1.09.88l-.48.42q-.5.47-1,1c-.13.14-.27.27-.4.42a18.39,18.39,0,0,0-1.17,1.47,21.53,21.53,0,0,0-2.66,5.13l0,0-.18.58c-.06.18-.12.37-.17.55a16.26,16.26,0,0,0-.42,1.63c0,.14-.05.27-.07.41q-.13.66-.21,1.32c0,.17-.05.33-.07.49,0,.54-.1,1.07-.12,1.59v.22c0,.48,0,1,0,1.42,0,.14,0,.28,0,.42,0,.51,0,1,.06,1.51l.35,0a41.16,41.16,0,0,0,1.35,6.32c.17.61.35,1.23.54,1.84l-.74.16a17.69,17.69,0,0,0,1.26,2.38s.06,0,.15,0l.17,0c.11.3.21.61.32.92a1.55,1.55,0,0,0-1,.71l.18.1L596,307c-1.08.22-1.95,1.09-3,1.45a3.66,3.66,0,0,1-2.29.11,3.41,3.41,0,0,1-1.22-.57c-.78-.48-.61-1.09.5-1.84.11,0,.12-.12.05-.17a1.51,1.51,0,0,0-2.34,1.42,3.2,3.2,0,0,0,.29,1.1,4.39,4.39,0,0,0-1.57.22l-.17,0a4.61,4.61,0,0,0-3.29,3,1.28,1.28,0,0,0-.11.2,4.85,4.85,0,0,1-1.38,2.06,2,2,0,0,1-3.19-1.38s-.07-.09-.09,0a2.62,2.62,0,0,0,.91,3.18l-.53.13c-1.57.48-2,1.69-1.84,3.17.1,1.28.15,3.4-1.76,3.32a6.41,6.41,0,0,0-1.95-.09,1.27,1.27,0,0,0-.54,2.09c-.14.09-.28.18-.42.29a2.91,2.91,0,0,0-.8,2,1.93,1.93,0,0,1-.61,1.4,2.49,2.49,0,0,1-2.4.42,1.08,1.08,0,0,0,.23.59,1.62,1.62,0,0,0,1.36.64,3.37,3.37,0,0,0,1-.22c-.21.55-.35,1.15-.55,1.66a4,4,0,0,1-2.43,2.27,4.75,4.75,0,0,1-.62.14,3.31,3.31,0,0,0,2.57.38,4.63,4.63,0,0,0,.58-.31,5.65,5.65,0,0,0,1.08-.93c.22.79,1,1.71,1.93,1.58a1.39,1.39,0,0,1-.67-.5,1.32,1.32,0,0,1,.25-1.85c1.19-1.13,3.2-.57,4.76-.65a3.5,3.5,0,0,0,1.25-.69,2.68,2.68,0,0,0,.59-.67c.06,1.11-.29,2.09-1.55,2.17-.06,0-.1.12,0,.14,1.81.82,3.16-1.19,3.31-2.72.12-1.26-.21-2.85.47-4a3.47,3.47,0,0,1,.63-.78,6.2,6.2,0,0,0-.54,1.5,6.9,6.9,0,0,0,.26,3.09v0a.27.27,0,0,0,0,.09,2.9,2.9,0,0,0,.69,1.91,2.21,2.21,0,0,0,.76.51.25.25,0,0,1-.12-.17,1,1,0,0,0,.39.31c.09,0,.11-.09,0-.13s-.31-.2-.45-.3a4.23,4.23,0,0,1,.47-1.94c.61-.95,1.83-.86,2.77-1.32l.07,0a2.24,2.24,0,0,0,0,.82c.09.53.66,1.41,1.33,1.1a.07.07,0,0,0,0-.1,1.73,1.73,0,0,1,.94-2.39c.6-.16,1,.14,1.61.28a2.83,2.83,0,0,0,2.36-.4,3.18,3.18,0,0,0,1.06-1.25,3.54,3.54,0,0,1-1.45,3.19c-.08.06,0,.19.09.18,2.49-.21,3.11-3,2.88-5-.15-1.25-.5-2.47-.55-3.72.26.66,1.21.85,2.11.62.1,0,0-.18-.06-.17-1.61.06-1.08-1.55-.66-2.1a6.36,6.36,0,0,1,.64-.75,8.93,8.93,0,0,1,1.5-1.08,7.49,7.49,0,0,0,2.52-2.26,7.26,7.26,0,0,0,1-3.3c.84.55.87-.35.87-.35h0c.63.51,1.29,1,2,1.45A67.28,67.28,0,0,0,616.59,319a.38.38,0,0,1,.13,0l.17.1c.4.18.82.36,1.25.51a7.36,7.36,0,0,1,.75.94c-.25.79-.49,1.59-.72,2.37a4.45,4.45,0,0,0-1.58,1.16,20,20,0,0,0-3.86,7.18l-18.81,9.53a3.28,3.28,0,0,0-.69.27c-3.47,1-8.11,7.34-9.12,8.45a125.25,125.25,0,0,0-8.29,10.24c-1.38,1.89-2.43,3.42-3.1,4.53a2.44,2.44,0,0,0-.48-.05,17,17,0,0,0-6,1.29c-1,.4-2,1.49-3.13,1.36-.26,0-1.82-.67-2-.45l.43-.63c.43-.31.93-.48,1.43-.85a1.22,1.22,0,0,0,.41-1.29c-.51-1.33-3,.23-3.66.65-.89.54-2.11,1.18-1.9,2.42a1,1,0,0,0,.24.45c-.35-.15-.64.24-.74.33-.54,1-1.31,2.29-.49,3.38a.3.3,0,0,1,0,.08l0,0a0,0,0,0,0,0,0s.05,0,.08.05a1.85,1.85,0,0,0-.33,1,1.42,1.42,0,0,0,.66,1.67.41.41,0,0,0,.11.07,1.44,1.44,0,0,0,.59,1.85,6.05,6.05,0,0,0,1,.35l.37,0a1.66,1.66,0,0,0-1,1.7c.2,1.31,1.64.16,2.45,0,1.66-.33,3.53.33,5.1-.37l.18-.1.31-.07.23-.1a.25.25,0,0,1,.12,0,3.52,3.52,0,0,0,.67-.34c.72-.5,1.39-1,2.06-1.57h0c1.37-1.11,2.65-2.31,3.94-3.56a9.67,9.67,0,0,0,2-2.72,1.78,1.78,0,0,0,.15-.86c1.58-.95,5.32-4.19,16.17-12.7l6.23-5.89,12.62-5.3q-.09,1.44-.15,2.85h0c0,1-.08,2-.1,3-.14,4.59,3.23,11.24,3.47,17.76.14,4-2.51,6.89-3.12,12.47-.55,1.3-1.2,2.92-1.88,4.9-1.63,4.7-5.6,19.28-6.8,23.73l-.22-.1c-.3.83-.57,1.68-.81,2.53a8.64,8.64,0,0,0,.92.76c-.91,3.85-1.62,7-2,8.83a126.72,126.72,0,0,0-13.54-3.19c-7.76-1.17-15.68.51-23.46.78l-4.26.17c.21-1.29.25-2.46-1.76-2.23,0,0,0,0,0,0-.74.09-1.48.17-2.23.21a25.19,25.19,0,0,1-5.49-.16,25.21,25.21,0,0,0-4-.44l-1.77-.21a2.36,2.36,0,0,0-.65,0l-.75-.07a8.75,8.75,0,0,0-1.84-.16H540a2.71,2.71,0,0,0-2.57,1.4c0,.07-.07.15-.11.23C536.59,419.45,535.9,421.7,535.29,424Zm25.9-54.23-2.26-.49.08-.75a6,6,0,0,0,.67.45c.37.2.76.38,1.13.58Z"/></g></svg>