<svg width="55" height="48" viewBox="0 0 55 48" fill="none" xmlns="http://www.w3.org/2000/svg">
<g clip-path="url(#clip0_23_204)">
<path d="M54.9957 19.5173C55.0015 19.4756 55.0015 19.4335 54.9957 19.3918C55.0011 19.3578 55.0011 19.3231 54.9957 19.2891L54.5883 16.3564C54.5295 16.0056 54.3723 15.6776 54.1344 15.4093L54.0645 15.3294L53.9365 15.2039L46.8829 9.24733L47.0808 9.44133C46.9189 9.25145 46.7157 9.09957 46.4861 8.99688C46.2565 8.89419 46.0062 8.84329 45.7539 8.84795H43.6122C43.2639 8.84119 42.9236 8.94974 42.6461 9.15606C42.3547 8.95098 42.0038 8.84299 41.6451 8.84795H39.5034C39.2225 8.84349 38.9454 8.91183 38.7001 9.04608C38.4549 9.18034 38.2501 9.37574 38.1067 9.61249C37.8855 9.95064 37.8023 10.3581 37.8738 10.7536L38.1416 12.6022C37.9642 12.5036 37.7635 12.4525 37.5596 12.4539H27.1887C26.8166 12.4561 26.4531 12.5631 26.1411 12.7619C25.8395 12.9471 25.5973 13.2121 25.4428 13.5265L24.6396 12.8532C24.3235 12.5665 23.9063 12.4111 23.4757 12.4196H7.20353C6.83012 12.4263 6.46501 12.5286 6.14436 12.7163C5.70569 12.968 5.38421 13.3773 5.24809 13.8574L0.0801167 30.8029C-0.0164452 31.0821 -0.0259442 31.3832 0.0528362 31.6678C0.131617 31.9522 0.295109 32.2074 0.522426 32.4004C0.581658 32.4496 0.643851 32.4954 0.708664 32.5373C0.708664 32.5373 0.603891 32.4688 0.545692 32.4118L7.59931 38.3798C7.89769 38.6491 8.28781 38.7997 8.69336 38.802H25.0936C25.4681 38.7925 25.8335 38.6862 26.1528 38.4939C26.3334 38.3971 26.495 38.2696 26.63 38.1173L26.6882 38.0374L26.7813 37.9234L26.8512 37.7978L27.6194 38.4483C27.9135 38.7069 28.2951 38.8492 28.6902 38.8477H45.1253C45.4994 38.8354 45.8641 38.7294 46.1845 38.5396C46.361 38.4369 46.5217 38.3101 46.6618 38.163L46.7199 38.0831L46.813 37.969C46.8625 37.8968 46.9055 37.8205 46.941 37.7407C46.9791 37.6716 47.0103 37.599 47.0342 37.524L51.7482 22.0506V21.9136C51.754 21.8605 51.754 21.807 51.7482 21.7539V21.6512C51.7539 21.6172 51.7539 21.5825 51.7482 21.5485C51.7535 21.4763 51.7535 21.4039 51.7482 21.3316H53.2614C53.393 21.3435 53.5255 21.3435 53.6571 21.3316H53.7619C53.8471 21.3067 53.9291 21.2722 54.0063 21.229H54.1227L54.3322 21.0692L54.4253 21.0007L54.5883 20.7953V20.7269L54.7047 20.5329C54.6982 20.4952 54.6982 20.4565 54.7047 20.4188C54.6985 20.4003 54.6985 20.3803 54.7047 20.3617C54.7294 20.2948 54.7489 20.2261 54.7629 20.1563C54.7575 20.1338 54.7575 20.1103 54.7629 20.0878C54.7572 20.0539 54.7572 20.0191 54.7629 19.9852C54.7629 19.9852 54.9957 19.5401 54.9957 19.5173Z" fill="white"/>
<path d="M23.9493 13.7215C24.0111 13.7763 24.0542 13.8484 24.0729 13.9279C24.0917 14.0075 24.0851 14.0908 24.0541 14.1666L18.8977 31.1006C18.8328 31.2855 18.7 31.44 18.5253 31.5342C18.3831 31.6275 18.2186 31.6825 18.048 31.694H1.6595C1.51954 31.6874 1.38695 31.6305 1.28703 31.5342C1.22759 31.4803 1.18587 31.4103 1.16721 31.3331C1.14855 31.2558 1.15381 31.1749 1.18228 31.1006L6.35025 14.1666C6.4098 13.9794 6.53846 13.8207 6.71108 13.7215C6.85558 13.635 7.01934 13.5841 7.1883 13.5732H23.5768C23.7157 13.5745 23.8488 13.6275 23.9493 13.7215ZM15.3942 27.6887L18.4787 17.5785H9.84215L6.76926 27.6887H15.3942ZM39.5929 13.8927C39.6488 13.9564 39.7187 14.0069 39.7973 14.0405C39.8759 14.0741 39.9611 14.0899 40.0469 14.0867H42.1769C42.258 14.0875 42.3379 14.068 42.4093 14.03C42.4805 13.9921 42.5407 13.937 42.5843 13.8699C42.6221 13.8175 42.6488 13.7581 42.6628 13.6954C42.6768 13.6327 42.6778 13.5678 42.6657 13.5047L42.2467 10.4922C42.2068 10.3528 42.1352 10.224 42.0372 10.1156C41.9812 10.0519 41.9114 10.0014 41.8328 9.96783C41.7542 9.93424 41.6689 9.91846 41.5833 9.92165H39.4532C39.3721 9.92088 39.2921 9.94038 39.2209 9.97831C39.1496 10.0162 39.0893 10.0714 39.0459 10.1385C38.9643 10.2982 38.9294 10.4009 38.9643 10.4922L39.395 13.5047C39.4171 13.6514 39.4865 13.7873 39.5929 13.8927ZM46.3555 10.4694C46.3156 10.33 46.2439 10.2012 46.146 10.0928C46.0924 10.0293 46.0246 9.97884 45.9479 9.94519C45.8712 9.91156 45.7876 9.89569 45.7037 9.89883H43.562C43.4822 9.8966 43.4033 9.91558 43.3336 9.95374C43.264 9.99191 43.2061 10.0479 43.1663 10.1156C43.0888 10.2169 43.0553 10.344 43.0732 10.4694L43.5038 13.4819C43.5308 13.627 43.5994 13.7616 43.7017 13.8699C43.7586 13.9323 43.8286 13.982 43.907 14.0155C43.9854 14.049 44.0701 14.0655 44.1556 14.0639H46.2973C46.3769 14.0649 46.4553 14.0454 46.5247 14.0074C46.5942 13.9693 46.6523 13.914 46.6931 13.8471C46.7336 13.796 46.7618 13.7367 46.7759 13.6735C46.7901 13.6103 46.7895 13.5449 46.7745 13.4819L46.3555 10.4694ZM37.7189 15.0338L37.5094 13.5504H27.1851C27.023 13.5591 26.8662 13.6104 26.7311 13.6987C26.6454 13.7445 26.5708 13.8081 26.5125 13.8849C26.4543 13.9617 26.4137 14.05 26.3936 14.1437L25.5323 16.9737C25.4979 17.0444 25.4861 17.1237 25.4986 17.2011C25.5111 17.2785 25.5472 17.3504 25.6021 17.4073C25.7003 17.4978 25.8284 17.5505 25.963 17.5557H38.5104L35.4259 27.6659H22.9134C22.752 27.6695 22.5949 27.7169 22.4595 27.8028C22.2948 27.9053 22.1746 28.0638 22.1219 28.2478L21.2489 31.0778C21.2204 31.1504 21.2129 31.2293 21.2273 31.3058C21.2417 31.3824 21.2773 31.4535 21.3304 31.5114C21.4255 31.6079 21.5546 31.665 21.6912 31.6711H38.1263C38.2962 31.6568 38.4601 31.602 38.6035 31.5114C38.7754 31.4167 38.9043 31.2618 38.9643 31.0778L43.69 15.6044H38.3707C38.2863 15.606 38.2025 15.5906 38.1245 15.5592C38.0464 15.5278 37.9757 15.481 37.9168 15.4218C37.8206 15.3183 37.7525 15.1927 37.7189 15.0566V15.0338Z" fill="#008000"/>
</g>
<defs>
<clipPath id="clip0_23_204">
<rect width="55" height="30" fill="white" transform="translate(0 8.84766)"/>
</clipPath>
</defs>
</svg>
