<svg width="48" height="48" viewBox="0 0 48 48" fill="none" xmlns="http://www.w3.org/2000/svg">
<g clip-path="url(#clip0_23_180)">
<path d="M45.0002 13.411C45.0002 13.4448 45.0002 13.4871 44.9914 13.5125C44.9473 13.8421 44.9473 14.1718 44.9737 14.51C44.9914 14.5945 45.009 14.679 45.0795 14.7467C45.194 14.8735 45.3701 14.8481 45.4406 14.6959C45.4758 14.6199 45.4758 14.5438 45.4582 14.4677C45.3701 14.1465 45.3525 13.8083 45.3437 13.4786C45.3437 13.4617 45.3437 13.4364 45.3437 13.411C45.4406 13.4026 45.5287 13.3941 45.6079 13.3941C45.6696 13.3857 45.7224 13.3772 45.7665 13.3518C45.8986 13.2842 45.8986 13.1405 45.7576 13.0729C45.7048 13.0475 45.6343 13.0391 45.5727 13.0391C45.3525 13.0475 45.1323 13.0475 44.9121 13.0475C44.8329 13.0475 44.7536 13.056 44.6743 13.0644C44.6302 13.0729 44.5774 13.0729 44.5422 13.0982C44.4805 13.1236 44.4453 13.1659 44.4453 13.225C44.4541 13.2842 44.4805 13.318 44.5422 13.3434C44.5774 13.3688 44.6214 13.3772 44.6655 13.3772C44.7712 13.3857 44.8857 13.4026 45.0002 13.411ZM47.4223 13.7999C47.4223 13.8083 47.4311 13.8168 47.4311 13.8168C47.4663 14.045 47.5016 14.2648 47.528 14.4846C47.5368 14.5607 47.5456 14.6283 47.5985 14.6875C47.713 14.8312 47.8891 14.8143 47.9684 14.6621C48.0036 14.586 48.0124 14.51 47.9948 14.4254C47.942 14.1718 47.9155 13.9182 47.8627 13.6731C47.8274 13.5209 47.7835 13.3772 47.7394 13.242C47.713 13.1574 47.6513 13.0982 47.5456 13.0898C47.44 13.0729 47.3607 13.1236 47.3166 13.1997C47.2638 13.2673 47.2197 13.3349 47.1845 13.411C47.1228 13.5463 47.07 13.6815 46.9996 13.8083C46.9907 13.8421 46.9819 13.8675 46.9643 13.8929C46.9555 13.876 46.9467 13.8675 46.9467 13.8675C46.8322 13.6562 46.7265 13.4448 46.612 13.242C46.5944 13.225 46.5856 13.2081 46.5768 13.1912C46.5239 13.1151 46.4623 13.0729 46.3654 13.0729C46.2773 13.0813 46.2068 13.1321 46.1628 13.2081C46.1452 13.242 46.1452 13.2673 46.1364 13.3011C46.1011 13.5716 46.0571 13.8421 46.0219 14.1127C46.0042 14.2648 45.9954 14.417 45.9954 14.5691C45.9866 14.603 45.9954 14.6452 46.013 14.679C46.0307 14.7467 46.0835 14.7889 46.154 14.7974C46.2421 14.8058 46.3037 14.7805 46.3301 14.7128C46.3565 14.6621 46.3654 14.6199 46.3742 14.5776C46.4094 14.4254 46.4358 14.2817 46.4623 14.138C46.4799 14.0535 46.4887 13.9859 46.5151 13.8929C46.5327 13.9267 46.5503 13.952 46.568 13.9774C46.6472 14.0788 46.7265 14.1803 46.8234 14.2648C46.9203 14.3324 46.9996 14.324 47.0788 14.2479C47.0964 14.231 47.1052 14.2226 47.1228 14.2056C47.2021 14.0873 47.299 13.9689 47.3782 13.8506C47.3959 13.8337 47.4047 13.8168 47.4223 13.7999Z" fill="white"/>
<path d="M27.1217 13.5778C27.0605 13.7385 27.0488 13.8542 27.0771 13.9504C27.1083 14.0813 27.1894 14.1241 27.2993 14.0908C28.3339 13.8453 30.6024 14.5422 31.4423 14.7364C31.6404 14.7772 31.8015 14.5318 31.6664 14.3118C31.4691 14.0987 29.2016 13.1864 28.3364 13.1367C27.9972 13.1183 27.3909 13.0348 27.1217 13.5778Z" fill="white"/>
<path d="M35.9906 10.6241C36.1008 10.6852 36.1625 10.7435 36.1929 10.8085C36.2382 10.8939 36.2143 10.953 36.1382 10.9832C35.4543 11.3035 34.5443 12.6826 34.177 13.1582C34.088 13.2676 33.8826 13.2041 33.8516 13.0241C33.8579 12.8207 34.6646 11.3241 35.1148 10.9164C35.2917 10.7573 35.584 10.445 35.9906 10.6241Z" fill="white"/>
<path d="M30.5469 9.94639C30.6794 9.85057 30.817 9.81699 30.8873 9.87926C31.9191 10.7262 32.4662 12.0673 32.8051 13.2951C32.8178 13.3237 32.8186 13.3647 32.8084 13.4076C32.8042 13.4442 32.7763 13.4828 32.7321 13.5127C32.6848 13.5458 32.6441 13.5558 32.625 13.5274C32.1728 12.937 29.59 10.6402 30.5469 9.94639Z" fill="white"/>
<path d="M8.69524 24.6285C8.94253 24.4518 9.21137 24.3047 9.49586 24.1905C9.7935 24.1089 10.1107 24.1224 10.3997 24.2291C10.6885 24.3359 10.9334 24.53 11.0971 24.7822C11.2435 25.0337 11.3008 25.3241 11.2604 25.6096C11.2199 25.8951 11.084 26.1602 10.8729 26.3651C10.7093 26.5312 10.5235 26.6759 10.3205 26.7954C9.41582 27.3564 8.50308 27.8866 7.59039 28.4475C7.40363 28.5879 7.20551 28.7139 6.99793 28.8241C6.68217 28.9752 6.32132 29.0157 5.97776 28.9385C5.6342 28.8614 5.32955 28.6713 5.11648 28.4014C4.95719 28.2103 4.82277 28.0013 4.71616 27.779C3.8515 26.0347 2.95481 24.2981 2.12217 22.523C1.73787 21.7546 1.42563 20.8709 1.12139 20.018C0.989767 19.7702 0.964063 19.4829 1.04976 19.2171C1.13545 18.9514 1.32577 18.7282 1.58025 18.5951C1.83473 18.462 2.13327 18.4294 2.4124 18.5043C2.69152 18.5791 2.92921 18.7556 3.0749 18.996C3.52271 19.5672 3.91911 20.1739 4.25981 20.8095C5.12448 22.3463 5.94912 23.8831 6.78176 25.3738C6.83024 25.4562 6.8837 25.5357 6.94188 25.612C7.56859 25.3591 8.15803 25.0285 8.69524 24.6285Z" fill="white"/>
<path d="M17.6362 24.0953C15.6587 26.316 12.3441 25.755 10.6789 22.8965C9.49393 20.8679 9.28579 17.5176 11.8638 15.4045C12.4143 14.9621 13.0726 14.6607 13.7772 14.5285C14.6412 14.4096 15.5223 14.5559 16.2944 14.9465C17.0666 15.337 17.6903 15.9519 18.0766 16.7031C19.4857 19.1621 19.2855 22.2972 17.6362 24.0953ZM16.8356 18.9161C16.6255 18.3119 16.2041 17.796 15.6427 17.4561C15.325 17.2388 14.939 17.1332 14.5497 17.157C14.1604 17.1808 13.7915 17.3325 13.505 17.5868C12.3602 18.5627 12.12 20.8756 12.9526 22.2511C13.0587 22.4754 13.2146 22.6747 13.4094 22.8351C13.6041 22.9955 13.8331 23.1132 14.0802 23.1797C14.3273 23.2464 14.5865 23.2603 14.8398 23.2207C15.0932 23.1811 15.3344 23.0888 15.5467 22.9503C16.1673 22.4885 16.6226 21.8526 16.8492 21.131C17.076 20.4094 17.0628 19.6379 16.8116 18.9239L16.8356 18.9161Z" fill="white"/>
<path d="M25.7021 19.8834C25.4997 19.9252 25.2905 19.9277 25.087 19.8907C24.8836 19.8538 24.6898 19.7782 24.5172 19.6683C24.3662 19.5854 24.2363 19.4714 24.1366 19.3345C24.037 19.1976 23.9703 19.0413 23.9412 18.8767C23.9121 18.7121 23.9214 18.5434 23.9684 18.3826C24.0154 18.2219 24.0989 18.0731 24.213 17.947C24.4118 17.6937 24.6939 17.5123 25.0136 17.4322C25.8484 17.1997 26.7078 17.0579 27.5756 17.0096C27.7663 16.9883 27.9595 17.0038 28.1438 17.0551C28.3281 17.1065 28.4999 17.1927 28.6491 17.3087C28.7982 17.4246 28.9218 17.568 29.0124 17.7304C29.103 17.8928 29.1589 18.071 29.1768 18.2544C29.427 19.1554 29.4544 20.1001 29.2569 21.013C28.5364 23.9637 26.0544 24.978 23.2683 24.0329C22.4862 23.7802 21.8004 23.3093 21.2988 22.6805C20.6296 21.9232 20.1552 21.0257 19.9137 20.0602C19.718 19.2004 19.7394 18.3083 19.9762 17.4581C20.213 16.6079 20.6582 15.8245 21.2747 15.1731C21.8598 14.4651 22.6192 13.9079 23.4845 13.5517C24.0312 13.2625 24.671 13.1802 25.2778 13.3212C25.4155 13.3578 25.5404 13.429 25.6397 13.5275C25.739 13.6261 25.8091 13.7483 25.8426 13.8816C25.8761 14.0149 25.8718 14.1543 25.8302 14.2855C25.7886 14.4166 25.7113 14.5347 25.6061 14.6275C25.4062 14.8012 25.1889 14.9556 24.9576 15.0885C24.2458 15.5236 23.6264 16.0842 23.1322 16.7406C22.8082 17.1654 22.5851 17.6532 22.4786 18.1696C22.372 18.686 22.3847 19.2185 22.5157 19.7298C22.6973 20.4269 23.1002 21.0525 23.6686 21.5202C25.4299 23.057 27.7197 21.5739 27.3194 19.4762C26.735 19.6145 26.2225 19.7605 25.7021 19.8834Z" fill="white"/>
<path d="M36.4637 24.2151C33.8617 25.7519 30.8994 24.2151 30.2509 20.9878C29.7785 18.6825 30.6752 15.4552 33.8137 14.2257C34.4814 13.9698 35.2057 13.8799 35.9193 13.9645C36.7766 14.1151 37.5632 14.5202 38.1678 15.1226C38.7725 15.7251 39.165 16.4945 39.2899 17.3224C39.8183 20.0656 38.6174 22.9933 36.4637 24.2151ZM37.3684 19.0437C37.3676 18.4053 37.1324 17.7876 36.7039 17.2994C36.4749 16.9974 36.1438 16.781 35.7672 16.6871C35.3904 16.5932 34.9915 16.6276 34.6383 16.7846C33.2292 17.3685 32.2364 19.4893 32.5967 21.0493C32.6243 21.2941 32.7071 21.5301 32.8396 21.741C32.9721 21.9518 33.1509 22.1324 33.3637 22.27C33.5764 22.4075 33.8179 22.4989 34.0713 22.5376C34.3247 22.5762 34.5838 22.5613 34.8304 22.4939C35.5753 22.2441 36.2202 21.7774 36.6751 21.1589C37.1302 20.5403 37.3725 19.8008 37.3684 19.0437Z" fill="white"/>
<path d="M41.9227 24.8629C41.8834 25.1441 41.7294 25.3988 41.4944 25.5711C41.2594 25.7432 40.9627 25.8188 40.6697 25.7811C40.3767 25.7434 40.1113 25.5955 39.9319 25.37C39.7524 25.1445 39.6737 24.8598 39.713 24.5785C39.7523 24.2973 39.9064 24.0426 40.1413 23.8703C40.3763 23.6981 40.673 23.6226 40.966 23.6603C41.259 23.698 41.5244 23.8458 41.7039 24.0714C41.8833 24.2969 41.962 24.5816 41.9227 24.8629ZM41.2261 14.4969C41.3784 14.2737 41.6018 14.1038 41.863 14.0124C42.1241 13.921 42.4091 13.913 42.6753 13.9898C42.9459 14.0548 43.185 14.207 43.3527 14.4211C43.5203 14.6351 43.6062 14.8979 43.596 15.1655C43.5607 15.5946 43.4938 16.0209 43.3959 16.441C43.1317 17.8626 42.8754 19.2841 42.5953 20.6904C42.4671 21.2513 42.299 21.7892 42.1148 22.3578C42.0508 22.5356 41.9438 22.6962 41.8026 22.8265C41.7149 22.9246 41.6028 22.9998 41.4767 23.0452C41.3506 23.0907 41.2147 23.1049 41.0814 23.0865C40.9481 23.0681 40.8217 23.0177 40.7141 22.9401C40.6065 22.8624 40.521 22.7599 40.4656 22.6421C40.3704 22.4308 40.3187 22.2038 40.3135 21.9736C40.3135 21.0208 40.3135 20.0603 40.3775 19.0997C40.4864 17.7289 40.7004 16.3677 41.018 15.0271C41.0554 14.8475 41.1258 14.6758 41.2261 14.52V14.4969Z" fill="white"/>
<path fill-rule="evenodd" clip-rule="evenodd" d="M5.31532 31.0376C5.22079 31.2401 5.19486 31.4659 5.24106 31.6832C5.27179 31.9697 5.33929 32.2514 5.44202 32.522C5.57027 32.8534 5.71379 33.1811 5.89075 33.585C5.93145 33.678 5.97398 33.775 6.01848 33.8771C6.25712 34.4243 6.55655 35.1235 6.95595 36.1356C7.069 36.4231 7.16938 36.7129 7.27047 37.0048C7.31131 37.1227 7.35229 37.241 7.39424 37.3596C7.54462 37.7811 7.80336 38.1598 8.14632 38.46C8.29196 38.625 8.48513 38.7452 8.70173 38.8053C8.92256 38.8666 9.15743 38.8627 9.37591 38.7942C9.59439 38.7255 9.78629 38.5954 9.92668 38.4207C10.0643 38.2494 10.1462 38.043 10.1621 37.8273C10.2514 37.4072 10.2209 36.9716 10.0737 36.5666C9.84014 35.8942 9.57405 35.2207 9.26721 34.562L9.2658 34.5591C8.76102 33.5285 8.24791 32.5051 7.71053 31.4813L7.7065 31.4741C7.54919 31.2074 7.34474 30.9689 7.10236 30.7695C6.945 30.5914 6.72795 30.4714 6.48825 30.43C6.24344 30.3877 5.99096 30.4303 5.77587 30.5502C5.5724 30.6617 5.41111 30.8323 5.31532 31.0376Z" fill="white"/>
<path fill-rule="evenodd" clip-rule="evenodd" d="M13.0214 28.5004C12.2299 28.3037 11.4033 28.275 10.5992 28.4165C9.97639 28.4753 9.36385 28.6132 8.9385 28.8863C8.72216 29.0253 8.54726 29.2038 8.44997 29.4307C8.35214 29.6588 8.33965 29.9197 8.41982 30.2103C8.56619 30.7427 8.75627 31.2604 8.94568 31.7764L8.97636 31.86L8.9771 31.8618C9.54742 33.3608 10.1232 34.8548 10.7042 36.3436C10.7719 36.5783 10.8677 36.8046 10.9896 37.0181L10.9919 37.022C11.153 37.2872 11.3596 37.5245 11.603 37.7237C11.7247 37.8332 11.8753 37.909 12.0385 37.9429C12.2033 37.977 12.3747 37.9672 12.5341 37.9142C12.6935 37.8612 12.8346 37.7673 12.9422 37.6426C13.048 37.52 13.1173 37.3722 13.1427 37.2149C13.2477 36.7877 13.2141 36.3399 13.0462 35.9315C12.9939 35.7941 12.9528 35.6536 12.9095 35.5058C12.895 35.4565 12.8804 35.4063 12.8649 35.3553C14.1948 34.8563 15.6099 34.1854 16.1075 32.6247C16.3023 32.0854 16.3186 31.5013 16.1539 30.9527C15.9892 30.4035 15.6511 29.9167 15.1863 29.5593C14.5538 29.0591 13.8149 28.6976 13.0214 28.5004ZM10.8275 30.4148C10.8537 30.4075 10.8801 30.4008 10.9065 30.3945C11.7723 30.2639 12.6581 30.438 13.4009 30.8846C13.7282 31.1031 13.8623 31.3458 13.8853 31.5794C13.9091 31.8199 13.818 32.0805 13.6349 32.331C13.2891 32.8042 12.6579 33.183 12.0878 33.2536C11.6722 32.335 11.2502 31.3792 10.8275 30.4148Z" fill="white"/>
<path d="M18.2998 26.8158C19.2424 26.398 20.4099 26.3259 21.3235 26.6196C21.5536 26.6839 21.7533 26.8231 21.8883 27.0132C22.0224 27.2022 22.0843 27.4299 22.0637 27.6575C22.0623 27.8053 22.0245 27.9507 21.9534 28.0819C21.881 28.2154 21.7762 28.3302 21.6478 28.4167C21.5195 28.5031 21.3713 28.5587 21.2158 28.5785C21.0603 28.5984 20.9022 28.582 20.7547 28.5308L20.7435 28.5269L20.733 28.5216C20.6575 28.4837 20.5773 28.4552 20.4944 28.4366L20.4892 28.4355C19.8465 28.2716 19.2402 28.5431 19.0188 28.8767C18.9132 29.0357 18.9001 29.1963 18.988 29.3423C19.0822 29.4987 19.3133 29.6742 19.7808 29.7993C19.9094 29.8332 20.0412 29.8659 20.1749 29.8991C20.5446 29.991 20.9287 30.0864 21.3002 30.2187L21.3017 30.2192C23.0155 30.8451 23.6537 32.1413 23.4353 33.3605C23.2191 34.5662 22.17 35.6635 20.5924 35.9223C20.0183 36.0444 19.4209 36.0206 18.8592 35.8533C18.2961 35.6854 17.7886 35.3791 17.387 34.9647L17.3766 34.9539C17.2498 34.7977 17.1645 34.6143 17.1267 34.4197C17.0919 34.244 17.1103 34.0625 17.1794 33.8965C17.2482 33.7315 17.3645 33.5886 17.5145 33.4846C17.6731 33.3666 17.8641 33.2958 18.0642 33.281C18.2635 33.2663 18.463 33.3079 18.638 33.4006C18.8129 33.4817 18.9755 33.5851 19.1215 33.7081L19.1242 33.7103C19.3824 33.937 19.6949 33.996 19.9945 33.9413C20.2984 33.8858 20.5842 33.7132 20.7681 33.4842C20.9507 33.2566 21.024 32.9862 20.937 32.7238C20.8494 32.4594 20.5862 32.1632 20.0077 31.9156C19.8565 31.854 19.6998 31.8043 19.5367 31.7559C19.4927 31.7429 19.448 31.7299 19.4027 31.7167C19.2821 31.6816 19.1581 31.6454 19.0364 31.6055C18.9526 31.5781 18.8695 31.5521 18.7872 31.5263C18.5622 31.456 18.3428 31.3875 18.1317 31.2955C17.6722 31.1454 17.2753 30.8571 16.9999 30.4733C16.7235 30.088 16.5843 29.6272 16.6033 29.1598C16.6047 28.0207 17.3522 27.2359 18.2998 26.8158Z" fill="white"/>
<path d="M30.2518 26.6975C30.069 26.6118 29.8669 26.5711 29.6638 26.5791C29.4605 26.5871 29.2626 26.6436 29.0878 26.7434C28.9141 26.8425 28.7687 26.9814 28.6645 27.1475C28.5689 27.2874 28.5028 27.4439 28.4698 27.6082C28.4369 27.7724 28.4377 27.9411 28.4721 28.1049C28.5062 28.3154 28.5439 28.5201 28.5812 28.722C28.6429 29.0561 28.7029 29.3827 28.7425 29.7157L28.744 29.7241C28.8342 30.2463 28.8814 30.7744 28.8856 31.3037L28.886 31.3112C28.9168 31.8827 28.7139 32.4432 28.3208 32.8736L28.3145 32.8812C28.1866 33.0385 28.0156 33.1586 27.8206 33.228C27.6256 33.2974 27.4143 33.3134 27.2104 33.2741C27.0065 33.2348 26.8181 33.1419 26.666 33.0056C26.514 32.8694 26.4044 32.6947 26.3497 32.5022C26.2328 32.0964 26.1652 31.679 26.148 31.2584L26.3476 28.2092C26.3505 28.1694 26.3539 28.1286 26.3573 28.0873C26.3649 27.9947 26.3727 27.9004 26.3759 27.8124C26.3806 27.683 26.3766 27.5498 26.3452 27.4238C26.313 27.295 26.2518 27.1725 26.1433 27.0682C26.0359 26.9649 25.8909 26.8887 25.7084 26.8368C25.3784 26.7451 25.0993 26.748 24.8668 26.8427C24.6342 26.9375 24.4748 27.1133 24.362 27.3164C24.25 27.5179 24.1781 27.7563 24.1237 27.9952C24.0834 28.1724 24.051 28.3585 24.0201 28.5356C24.0095 28.5966 23.9991 28.6565 23.9885 28.7147L23.9882 28.7164C23.8233 29.6876 23.7743 30.6738 23.8419 31.6557C23.8546 32.1863 23.9699 32.7101 24.182 33.2003C24.4214 33.8327 24.8549 34.3807 25.4254 34.7719C25.9972 35.1638 26.6794 35.3798 27.3818 35.3912C28.0843 35.4026 28.7738 35.2089 29.359 34.8358C29.9433 34.4632 30.3961 33.9292 30.6575 33.3045C31.0233 32.5086 31.195 31.6431 31.1596 30.7739C31.1381 30.1393 31.1021 29.4999 31.0663 28.8636C31.0487 28.5516 31.0312 28.2401 31.0155 27.9306C31.0076 27.6203 30.9009 27.3197 30.7099 27.0691C30.5916 26.9108 30.4342 26.783 30.2518 26.6975Z" fill="white"/>
<path d="M36.7136 31.4767C36.6951 31.4994 36.6755 31.5228 36.6551 31.5471C36.5064 30.724 36.3687 29.9012 36.2307 29.0771C36.1812 28.7815 36.1315 28.4845 36.0814 28.1885L36.0758 28.1555L36.0575 28.1269C36.0231 28.0732 36.0197 28.0205 36.0197 27.9082V27.8952L36.0176 27.8824C35.9802 27.6505 35.8709 27.4346 35.704 27.2631C35.5374 27.0921 35.3212 26.973 35.0833 26.9214C34.8458 26.8652 34.5962 26.8775 34.366 26.957C34.1364 27.0363 33.9362 27.1788 33.7905 27.3667C33.6694 27.5108 33.5701 27.6707 33.4957 27.8415C33.3268 28.2096 33.1565 28.5785 32.9857 28.9485L32.9827 28.9549C32.5563 29.8785 32.127 30.8082 31.7102 31.7453L31.7089 31.7484C31.453 32.356 31.2418 32.9962 31.0313 33.6345C30.9893 33.7619 30.9472 33.8892 30.9049 34.0162C30.8288 34.2176 30.7956 34.4316 30.807 34.6455C30.7932 34.8369 30.8409 35.0279 30.9439 35.1926C31.0489 35.3607 31.2063 35.4929 31.3937 35.5708C31.5923 35.6543 31.8143 35.6721 32.0247 35.6212C32.2346 35.5704 32.4209 35.4541 32.5545 35.2906C32.725 35.0893 32.8717 34.8697 32.9914 34.637C33.3445 33.9438 33.6819 33.2421 34.0179 32.5435C34.1479 32.2733 34.2741 32.0312 34.4178 31.7677C34.4277 31.8002 34.4378 31.8319 34.4482 31.8636C34.5988 32.5 34.853 33.1095 35.2014 33.6699C35.2673 33.7886 35.3592 33.8923 35.4706 33.974C35.5834 34.0566 35.7136 34.1146 35.8521 34.1441C35.9907 34.1735 36.1342 34.1737 36.2728 34.1445C36.4112 34.1154 36.5418 34.0573 36.6546 33.975L36.878 33.8145L38.6118 32.4129L38.5093 33.04C38.3686 33.902 38.2289 34.7568 38.0805 35.6119C37.9835 35.9909 37.9836 36.3867 38.0809 36.7656C38.1231 36.9788 38.2305 37.175 38.3895 37.3294C38.5499 37.485 38.7552 37.5907 38.9789 37.6329C39.2026 37.675 39.4344 37.6517 39.6441 37.5658C39.8508 37.4813 40.0265 37.3398 40.1494 37.1596C40.4353 36.8191 40.6132 36.407 40.6621 35.9722C40.7357 35.3582 40.8188 34.7358 40.902 34.1136C40.9978 33.3965 41.0936 32.6795 41.1746 31.9763L41.1748 31.9742C41.2527 31.2044 41.2904 30.4315 41.2878 29.6581C41.3048 29.4137 41.2414 29.1703 41.1063 28.9622C40.9708 28.7534 40.77 28.591 40.5327 28.4982C40.2859 28.3905 40.0096 28.3617 39.7445 28.4161C39.4811 28.4702 39.2427 28.6034 39.0638 28.7965C38.744 29.0804 38.444 29.3841 38.1657 29.7058L38.1638 29.708C37.86 30.0714 37.5582 30.4418 37.2584 30.8099C37.0762 31.0337 36.8944 31.2569 36.7136 31.4767Z" fill="white"/>
</g>
<defs>
<clipPath id="clip0_23_180">
<rect width="47" height="29" fill="white" transform="translate(1 9.84766)"/>
</clipPath>
</defs>
</svg>
