<svg width="52" height="48" viewBox="0 0 52 48" fill="none" xmlns="http://www.w3.org/2000/svg">
<g clip-path="url(#clip0_23_200)">
<path d="M12.3431 13.8477C10.3124 13.8477 8.36487 14.6544 6.92893 16.0903L2.24264 20.7766C0.8067 22.2125 0 24.1601 0 26.1908C0 30.4196 3.42809 33.8477 7.65687 33.8477C9.6876 33.8477 11.6351 33.0409 13.0711 31.605L16.3126 28.3635C16.3126 28.3634 16.3127 28.3635 16.3126 28.3635L25.7573 18.9187C26.4431 18.2329 27.3733 17.8477 28.3431 17.8477C29.9669 17.8477 31.3435 18.9059 31.8207 20.3704L34.8015 17.3896C33.4417 15.2599 31.0573 13.8477 28.3431 13.8477C26.3124 13.8477 24.3649 14.6544 22.9289 16.0903L10.2427 28.7766C9.55687 29.4624 8.62673 29.8477 7.65687 29.8477C5.63723 29.8477 4 28.2105 4 26.1908C4 25.2209 4.38527 24.2908 5.07107 23.605L9.75733 18.9187C10.4431 18.2329 11.3733 17.8477 12.3431 17.8477C13.9669 17.8477 15.3435 18.906 15.8207 20.3705L18.8015 17.3897C17.4417 15.2599 15.0574 13.8477 12.3431 13.8477Z" fill="white"/>
<path d="M26.2392 28.7766C25.5534 29.4624 24.6232 29.8477 23.6534 29.8477C22.0298 29.8477 20.6534 28.7897 20.176 27.3255L17.1953 30.3061C18.5552 32.4356 20.9394 33.8477 23.6534 33.8477C25.6841 33.8477 27.6316 33.0409 29.0676 31.605L41.7538 18.9187C42.4396 18.2329 43.3698 17.8477 44.3396 17.8477C46.3593 17.8477 47.9965 19.4849 47.9965 21.5045C47.9965 22.4744 47.6112 23.4045 46.9254 24.0903L42.2392 28.7766C41.5534 29.4624 40.6232 29.8477 39.6534 29.8477C38.0297 29.8477 36.6532 28.7895 36.1758 27.3251L33.1952 30.3059C34.555 32.4355 36.9392 33.8477 39.6534 33.8477C41.6841 33.8477 43.6316 33.0409 45.0676 31.605L49.7538 26.9187C51.1898 25.4828 51.9965 23.5353 51.9965 21.5045C51.9965 17.2757 48.5684 13.8477 44.3396 13.8477C42.3089 13.8477 40.3614 14.6544 38.9254 16.0903L26.2392 28.7766Z" fill="white"/>
</g>
<defs>
<clipPath id="clip0_23_200">
<rect width="52" height="20" fill="white" transform="translate(0 13.8477)"/>
</clipPath>
</defs>
</svg>
