<svg width="28" height="28" viewBox="0 0 28 28" fill="none" xmlns="http://www.w3.org/2000/svg">
<path d="M27.8413 0.57484C27.8279 0.464119 27.7778 0.361088 27.6989 0.282225C27.62 0.203363 27.517 0.153222 27.4063 0.139823C25.5172 -0.0901353 23.6042 -0.0362031 21.7311 0.29983C17.8664 0.962354 14.0458 3.06243 11.0837 5.92604C10.8102 6.18605 10.1576 6.80257 9.89463 7.05508C8.33507 8.85765 6.5375 11.2452 5.49296 13.2653C5.34196 13.5713 5.49096 13.8038 5.74797 14.0248C5.98748 14.2649 6.447 14.7194 7.03152 15.3039C9.2666 17.544 11.7062 19.9831 13.9568 22.2337L14.1268 22.4037C14.3633 22.6457 14.7013 22.5372 14.9458 22.3637C16.5071 21.492 17.9913 20.489 19.3825 19.3655C25.0462 14.9299 28.8423 7.86111 27.8413 0.57484ZM21.3411 12.3158C18.874 14.8384 14.4503 13.0108 14.4908 9.47817C14.4583 5.94104 18.859 4.11647 21.3411 6.64057C22.9096 8.20413 22.9096 10.7522 21.3411 12.3158ZM0.951291 14.6044C0.971291 14.6044 0.991292 14.6044 1.01129 14.5994L4.59343 14.1644C4.32692 13.6583 4.41942 13.0453 4.73343 12.5708C4.98344 12.1108 5.39296 11.4067 5.96248 10.5422C6.90751 9.06916 8.07256 7.66161 9.1901 6.35056L9.90963 5.66603C3.9219 5.60603 0.856787 10.8697 0.461772 14.0298C0.40427 14.3184 0.652279 14.6139 0.951291 14.6044ZM20.012 20.1401C18.5761 21.3016 17.0433 22.338 15.4303 23.2377C14.9698 23.5537 14.3263 23.6647 13.8168 23.3877L13.3818 26.9698C13.3393 27.2548 13.5843 27.5369 13.8768 27.5299C14.8203 27.3913 19.0735 26.5378 21.2561 22.4487C21.9401 21.1651 22.3411 19.4435 22.3201 18.0615C21.5883 18.795 20.8179 19.4889 20.012 20.1401ZM11.2287 20.9196C9.74012 19.427 8.02606 17.715 6.562 16.2479L6.22199 16.938C6.08254 17.2184 6.03456 17.5356 6.08479 17.8448C6.13502 18.154 6.28093 18.4396 6.502 18.6615L9.3201 21.4791C9.54141 21.7012 9.82712 21.8478 10.1366 21.8981C10.446 21.9483 10.7634 21.8997 11.0437 21.7591L11.7332 21.4191C11.5662 21.2531 11.4037 21.0876 11.2287 20.9196ZM6.557 21.4441C3.10487 18.3725 0.0517567 24.4307 0.00175487 27.4493C-0.0242461 27.7369 0.242764 28.0044 0.531775 27.9794C3.54189 27.9289 9.58562 24.8928 6.557 21.4441Z" fill="black"/>
<path d="M18.5032 6.46484C14.532 6.56835 14.5075 12.3756 18.5032 12.4901C22.5008 12.3731 22.4748 6.56785 18.5032 6.46484Z" fill="black"/>
</svg>
