<svg width="60" height="60" viewBox="0 0 60 60" fill="none" xmlns="http://www.w3.org/2000/svg">
<path d="M10 0V24.9987C15.1055 24.9987 19.4535 28.0993 21.387 32.4983H38.6146C40.5482 28.0993 44.8969 24.9987 50.0024 24.9987V0H10ZM22.5008 22.4981H17.5004V4.99749H22.5008V22.4981ZM32.5011 22.4981H27.5006V9.99798H32.5011V22.4981ZM42.5021 22.4981H37.5016V14.9977H42.5021V22.4981Z" fill="white"/>
<path d="M30.0004 52.5007C34.1427 52.5007 37.5007 49.1427 37.5007 45.0004C37.5007 40.858 34.1427 37.5 30.0004 37.5C25.858 37.5 22.5 40.858 22.5 45.0004C22.5 49.1427 25.858 52.5007 30.0004 52.5007Z" fill="white"/>
<path d="M20 60.0005C20 57.2389 22.2389 55 25.0005 55H35.0007C37.7624 55 40.0005 57.2389 40.0005 60.0005H20Z" fill="white"/>
<path d="M50.0004 44.9968C54.1427 44.9968 57.5007 41.6388 57.5007 37.4965C57.5007 33.3541 54.1427 29.9961 50.0004 29.9961C45.858 29.9961 42.5 33.3541 42.5 37.4965C42.5 41.6388 45.858 44.9968 50.0004 44.9968Z" fill="white"/>
<path d="M10.0004 44.9968C14.1427 44.9968 17.5007 41.6388 17.5007 37.4965C17.5007 33.3541 14.1427 29.9961 10.0004 29.9961C5.85803 29.9961 2.5 33.3541 2.5 37.4965C2.5 41.6388 5.85803 44.9968 10.0004 44.9968Z" fill="white"/>
<path d="M19.8887 51.4534C19.4049 49.1951 17.4031 47.5 15.0007 47.5H5.00049C2.23886 47.5 0 49.7389 0 52.5005V60.0008H15.0007C15.0007 56.3609 16.9733 53.204 19.8887 51.4534Z" fill="white"/>
<path d="M40.1172 51.4534C40.601 49.1951 42.6021 47.5 45.0052 47.5H55.0054C57.767 47.5 60.0059 49.7389 60.0059 52.5005V60.0008H45.0052C45.0052 56.3609 43.0326 53.204 40.1172 51.4534Z" fill="white"/>
</svg>
