<svg width="60" height="60" viewBox="0 0 60 60" fill="none" xmlns="http://www.w3.org/2000/svg">
<path d="M57.5 55.0008V23.7508C57.5 23.2508 57.2025 22.7983 56.7425 22.6008L39.2425 15.1008C38.855 14.9333 38.4125 14.9733 38.0625 15.2058C37.71 15.4383 37.5 15.8308 37.5 16.2508V55.0008H35V1.87581C35 1.25831 34.6975 0.680811 34.19 0.330811C33.68 -0.019189 33.035 -0.0966891 32.4575 0.123311L6.2075 10.1233C5.48 10.4008 5 11.0983 5 11.8758V55.0008H2.5C1.12 55.0008 0 56.1183 0 57.5008C0 58.8833 1.12 60.0008 2.5 60.0008H57.5C58.88 60.0008 60 58.8833 60 57.5008C60 56.1183 58.88 55.0008 57.5 55.0008ZM50 31.8758C50 30.8408 50.84 30.0008 51.875 30.0008C52.91 30.0008 53.75 30.8408 53.75 31.8758V35.6258C53.75 36.6608 52.91 37.5008 51.875 37.5008C50.84 37.5008 50 36.6608 50 35.6258V31.8758ZM50 46.8758C50 45.8408 50.84 45.0008 51.875 45.0008C52.91 45.0008 53.75 45.8408 53.75 46.8758V50.6258C53.75 51.6608 52.91 52.5008 51.875 52.5008C50.84 52.5008 50 51.6608 50 50.6258V46.8758ZM41.25 31.8758C41.25 30.8408 42.09 30.0008 43.125 30.0008C44.16 30.0008 45 30.8408 45 31.8758V35.6258C45 36.6608 44.16 37.5008 43.125 37.5008C42.09 37.5008 41.25 36.6608 41.25 35.6258V31.8758ZM41.25 46.8758C41.25 45.8408 42.09 45.0008 43.125 45.0008C44.16 45.0008 45 45.8408 45 46.8758V50.6258C45 51.6608 44.16 52.5008 43.125 52.5008C42.09 52.5008 41.25 51.6608 41.25 50.6258V46.8758ZM23.75 16.8758C23.75 15.8408 24.59 15.0008 25.625 15.0008C26.66 15.0008 27.5 15.8408 27.5 16.8758V20.6258C27.5 21.6608 26.66 22.5008 25.625 22.5008C24.59 22.5008 23.75 21.6608 23.75 20.6258V16.8758ZM23.75 31.8758C23.75 30.8408 24.59 30.0008 25.625 30.0008C26.66 30.0008 27.5 30.8408 27.5 31.8758V35.6258C27.5 36.6608 26.66 37.5008 25.625 37.5008C24.59 37.5008 23.75 36.6608 23.75 35.6258V31.8758ZM23.75 46.8758C23.75 45.8408 24.59 45.0008 25.625 45.0008C26.66 45.0008 27.5 45.8408 27.5 46.8758V50.6258C27.5 51.6608 26.66 52.5008 25.625 52.5008C24.59 52.5008 23.75 51.6608 23.75 50.6258V46.8758ZM12.5 16.8758C12.5 15.8408 13.34 15.0008 14.375 15.0008C15.41 15.0008 16.25 15.8408 16.25 16.8758V20.6258C16.25 21.6608 15.41 22.5008 14.375 22.5008C13.34 22.5008 12.5 21.6608 12.5 20.6258V16.8758ZM12.5 31.8758C12.5 30.8408 13.34 30.0008 14.375 30.0008C15.41 30.0008 16.25 30.8408 16.25 31.8758V35.6258C16.25 36.6608 15.41 37.5008 14.375 37.5008C13.34 37.5008 12.5 36.6608 12.5 35.6258V31.8758ZM12.5 46.8758C12.5 45.8408 13.34 45.0008 14.375 45.0008C15.41 45.0008 16.25 45.8408 16.25 46.8758V50.6258C16.25 51.6608 15.41 52.5008 14.375 52.5008C13.34 52.5008 12.5 51.6608 12.5 50.6258V46.8758Z" fill="white"/>
</svg>
