<svg width="59" height="60" viewBox="0 0 59 60" fill="none" xmlns="http://www.w3.org/2000/svg">
<path d="M28.0213 22.3818C33.6548 20.1243 47.8577 14.4349 53.3077 12.2654H54.9082V20.8779C54.2985 21.245 53.8863 21.9062 53.8863 22.6684C53.8863 23.7526 54.7171 24.6371 55.7734 24.7434C55.3151 24.8347 54.9726 25.2007 54.9093 25.6462L53.3785 36.3422C53.0125 40.2936 58.9444 40.3151 58.587 36.3422L57.0562 25.6462C56.9886 25.1706 56.6193 24.8261 56.1706 24.7456C58.1544 24.6135 58.7813 21.845 57.0551 20.8779V11.192C57.0551 10.5994 56.5753 10.1185 55.9817 10.1185H53.2916L28.0213 0L0.046875 11.1963C6.56922 13.7951 21.3733 19.7196 28.0213 22.3818Z" fill="white"/>
<path d="M11.2344 17.9805V26.7936C11.2344 27.5236 11.6101 28.2213 12.2327 28.6078C22.7526 35.2203 33.2833 35.2203 43.8032 28.6078C44.4258 28.2213 44.8015 27.5236 44.8015 26.7936V17.9805L28.0233 24.6896L11.2344 17.9805Z" fill="white"/>
<path d="M58.3029 46.6762C57.5536 45.3151 55.8629 44.7869 54.4717 45.4804L39.8415 52.2346H35.6947C39.3745 51.9996 38.475 46.8029 35.114 46.8491H27.8982L23.4916 44.086C22.6779 43.5761 21.7365 43.3045 20.7758 43.3045C19.1387 43.4193 15.7133 42.947 14.2631 43.8852C13.1241 44.4853 11.3862 45.7058 10.0379 45.6124L7.0258 45.6081V43.9367C7.0258 43.3442 6.54489 42.8633 5.95234 42.8633H1.07346C0.48091 42.8633 0 43.3442 0 43.9367V57.3401C0 57.9326 0.48091 58.4135 1.07346 58.4135H5.95234C7.35964 58.3577 6.97857 56.7561 7.0258 55.8275H13.7961C14.8341 55.8275 15.8572 56.0691 16.7857 56.5328L22.5727 59.4258C23.3295 59.8037 24.1636 60.0012 25.0106 60.0012H39.074C39.9574 60.0012 40.8269 59.7736 41.5977 59.3421L57.2562 50.559C58.5916 49.7571 59.0543 48.0417 58.3029 46.6762ZM3.51236 48.864C1.58765 48.8296 1.58872 45.9677 3.51236 45.9345C5.43815 45.9688 5.43815 48.8307 3.51236 48.864Z" fill="white"/>
</svg>
