<svg width="54" height="58" viewBox="0 0 54 58" fill="none" xmlns="http://www.w3.org/2000/svg">
<path d="M37.408 52.6784V23.7526L34.2416 23.5087C31.6685 23.3105 29.4727 22.102 27.9489 20.0534H17.4785C16.9607 20.0534 16.541 19.6336 16.541 19.1159C16.541 18.5981 16.9607 18.1784 17.4785 18.1784H26.6561L25.1534 15.984H17.4786C16.9609 15.984 16.5411 15.5643 16.5411 15.0465C16.5411 14.5288 16.9609 14.109 17.4786 14.109H23.8694L22.54 12.1679C21.9515 11.3087 21.909 10.2013 22.4298 9.2993L22.6449 8.92664H11.0974V13.7024H12.5296C12.8121 13.7024 13.0432 13.9335 13.0432 14.2159V19.9465C13.0432 20.2289 12.8122 20.46 12.5296 20.46H6.79883C6.51641 20.46 6.28531 20.229 6.28531 19.9465V19.1959H0.828125V52.6784C0.828125 53.57 1.55574 54.2973 2.44707 54.2973H35.789C36.68 54.2973 37.408 53.5698 37.408 52.6784ZM13.0429 49.0082C13.0429 49.2906 12.812 49.5217 12.5294 49.5217H6.79883C6.51641 49.5217 6.28531 49.2907 6.28531 49.0082V43.2776C6.28531 42.9952 6.51641 42.7641 6.79883 42.7641H12.5294C12.8118 42.7641 13.0429 42.9952 13.0429 43.2776V49.0082ZM13.0429 39.321C13.0429 39.6034 12.812 39.8345 12.5294 39.8345H6.79883C6.51641 39.8345 6.28531 39.6034 6.28531 39.321V33.5903C6.28531 33.3079 6.51641 33.0768 6.79883 33.0768H12.5294C12.8118 33.0768 13.0429 33.3079 13.0429 33.5903V39.321ZM13.0429 29.6337C13.0429 29.9161 12.812 30.1472 12.5294 30.1472H6.79883C6.51641 30.1472 6.28531 29.9161 6.28531 29.6337V23.9031C6.28531 23.6207 6.51641 23.3896 6.79883 23.3896H12.5294C12.8118 23.3896 13.0429 23.6207 13.0429 23.9031V29.6337ZM17.4784 23.7963H27.1099C27.6276 23.7963 28.0474 24.2161 28.0474 24.7338C28.0474 25.2516 27.6276 25.6713 27.1099 25.6713H17.4784C16.9606 25.6713 16.5409 25.2516 16.5409 24.7338C16.5409 24.2161 16.9606 23.7963 17.4784 23.7963ZM31.9507 49.115H17.4785C16.9607 49.115 16.541 48.6953 16.541 48.1775C16.541 47.6598 16.9607 47.24 17.4785 47.24H31.9507C32.4684 47.24 32.8882 47.6598 32.8882 48.1775C32.8882 48.6953 32.4684 49.115 31.9507 49.115ZM16.541 44.1082C16.541 43.5905 16.9607 43.1707 17.4785 43.1707H27.11C27.6277 43.1707 28.0475 43.5905 28.0475 44.1082C28.0475 44.6259 27.6277 45.0457 27.11 45.0457H17.4785C16.9606 45.0457 16.541 44.6259 16.541 44.1082ZM31.9507 39.4279H17.4784C16.9606 39.4279 16.5409 39.0081 16.5409 38.4904C16.5409 37.9726 16.9606 37.5529 17.4784 37.5529H31.9507C32.4684 37.5529 32.8882 37.9726 32.8882 38.4904C32.8882 39.0081 32.4684 39.4279 31.9507 39.4279ZM16.5409 34.421C16.5409 33.9033 16.9606 33.4835 17.4784 33.4835H27.1099C27.6276 33.4835 28.0474 33.9033 28.0474 34.421C28.0474 34.9388 27.6276 35.3585 27.1099 35.3585H17.4784C16.9606 35.3585 16.5409 34.9388 16.5409 34.421ZM31.9507 29.7405H17.4784C16.9606 29.7405 16.5409 29.3208 16.5409 28.803C16.5409 28.2853 16.9606 27.8655 17.4784 27.8655H31.9507C32.4684 27.8655 32.8882 28.2853 32.8882 28.803C32.8882 29.3208 32.4684 29.7405 31.9507 29.7405ZM7.76047 17.3209H0.968398C1.04691 17.149 1.15824 16.9907 1.30227 16.8468L8.74801 9.4009C8.89203 9.25687 9.05023 9.14555 9.22215 9.06703V15.8592C9.22227 16.6643 8.56543 17.3209 7.76047 17.3209ZM29.28 18.6915L24.0869 11.1086C23.9046 10.8424 23.8921 10.5162 24.0534 10.2369L26.0612 6.75937L32.6611 16.3963C33.0914 17.0246 33.8307 17.498 34.5957 17.5569L46.3289 18.4609L44.3211 21.9384C44.1598 22.2178 43.8711 22.3702 43.5494 22.3453L34.3855 21.6394C32.2543 21.4751 30.4878 20.4551 29.28 18.6915ZM11.5989 25.2791C11.965 25.6431 11.9667 26.2351 11.6026 26.6011L9.96488 28.2541C9.60336 28.6178 9.01695 28.6218 8.65027 28.265L7.73668 27.3746C7.3666 27.0146 7.3584 26.4227 7.7184 26.0527C8.0784 25.6826 8.67031 25.6744 9.04039 26.0344L9.29059 26.2784L10.2768 25.2829C10.6409 24.9166 11.2329 24.915 11.5989 25.2791ZM11.5989 34.9663C11.965 35.3303 11.9667 35.9222 11.6026 36.2883L9.96488 37.9413C9.60336 38.305 9.01695 38.3089 8.65027 37.9522L7.73668 37.0618C7.3666 36.7018 7.3584 36.1099 7.7184 35.7398C8.0784 35.3698 8.67031 35.3616 9.04039 35.7216L9.29059 35.9654L10.2768 34.9699C10.6409 34.6038 11.2329 34.6022 11.5989 34.9663ZM11.5989 44.6535C11.965 45.0175 11.9667 45.6094 11.6026 45.9755L9.96488 47.6285C9.60336 47.9921 9.01684 47.9961 8.65027 47.6394L7.73668 46.749C7.3666 46.389 7.3584 45.7971 7.7184 45.427C8.0784 45.057 8.67031 45.0487 9.04039 45.4087L9.29059 45.6527L10.2768 44.6572C10.6409 44.291 11.2329 44.2894 11.5989 44.6535ZM49.6358 16.882L52.4324 17.0975C52.4154 17.2309 52.3694 17.3626 52.2921 17.4832L48.0654 24.8041L48.6106 26.5732L46.7192 29.8493C46.5901 30.0729 46.3024 30.15 46.0788 30.0209L42.9239 28.1994C42.7003 28.0703 42.6233 27.7827 42.7523 27.5591L44.6438 24.2829L46.4485 23.8706L50.2528 17.2815L49.6358 16.882ZM39.283 23.8971L41.056 24.0337V26.758C40.7257 27.4277 40.7456 28.192 41.056 28.8266V56.3265C41.056 57.2179 40.3282 57.9455 39.4371 57.9455H6.09512C5.20379 57.9455 4.47617 57.2182 4.47617 56.3265V56.1725H35.789C37.715 56.1725 39.283 54.6047 39.283 52.6786V23.8971ZM53.0145 17.0954L52.437 17.0509C52.4621 16.7211 52.3112 16.3882 52.0142 16.1954L39.0334 7.7918C38.6006 7.51066 38.0218 7.63359 37.7407 8.06648C37.4595 8.49937 37.5825 9.07805 38.0154 9.35918L49.5534 16.8287L34.7398 15.6874C34.5705 15.6744 34.3313 15.5167 34.2082 15.3368L23.9503 0.35871C23.8271 0.178944 23.865 0.042538 24.0343 0.0555458L42.3091 1.46344C42.4784 1.47656 42.7175 1.6343 42.8407 1.81406L53.0986 16.7921C53.2216 16.972 53.1839 17.1084 53.0145 17.0954Z" fill="white"/>
</svg>
