<svg width="17" height="16" viewBox="0 0 17 16" fill="none" xmlns="http://www.w3.org/2000/svg">
<g clip-path="url(#clip0_23_78)">
<path d="M16.4583 6.13797C16.3536 5.81398 16.0662 5.58387 15.7262 5.55323L11.1082 5.13391L9.28209 0.859754C9.14744 0.546514 8.84079 0.34375 8.50008 0.34375C8.15938 0.34375 7.85273 0.546514 7.71808 0.860487L5.89198 5.13391L1.27321 5.55323C0.933847 5.58461 0.647219 5.81398 0.541869 6.13797C0.43652 6.46195 0.533812 6.8173 0.790533 7.04131L4.28122 10.1027L3.2519 14.6368C3.17658 14.9702 3.30598 15.3148 3.5826 15.5148C3.73128 15.6222 3.90524 15.6769 4.08066 15.6769C4.23191 15.6769 4.38193 15.6361 4.51658 15.5556L8.50008 13.1748L12.4821 15.5556C12.7735 15.7309 13.1408 15.7149 13.4168 15.5148C13.6936 15.3142 13.8229 14.9695 13.7475 14.6368L12.7182 10.1027L16.2089 7.04192C16.4656 6.8173 16.5636 6.46256 16.4583 6.13797Z" fill="#FFC107"/>
</g>
<defs>
<clipPath id="clip0_23_78">
<rect width="16" height="16" fill="white" transform="translate(0.5)"/>
</clipPath>
</defs>
</svg>
